<svg xmlns="http://www.w3.org/2000/svg" width="53.998" height="54" viewBox="0 0 53.998 54">
  <g id="Group_800" data-name="Group 800" transform="translate(-6411.213 -1804.107)">
    <path id="Path_826" data-name="Path 826" d="M6462.512,1852.707v-.9a2.7,2.7,0,0,0-2.7-2.7v-1.8a1.793,1.793,0,0,0-.9-1.549v-5.65h4.728a1.576,1.576,0,0,0,.906-2.861l-16.974-12.036a2.153,2.153,0,0,0-2.514,0l-1.477,1.048a1.8,1.8,0,0,0-.869-1.2v-5.65h4.729a1.576,1.576,0,0,0,.906-2.861l-16.974-12.035a2.154,2.154,0,0,0-2.514,0l-16.981,12.035a1.576,1.576,0,0,0,.907,2.861h4.728v5.65a1.8,1.8,0,0,0-.9,1.55v1.8a2.7,2.7,0,0,0-2.7,2.7v.9a2.7,2.7,0,0,0-2.7,2.7v.9a1.8,1.8,0,0,0,1.8,1.8h14.9a1.559,1.559,0,0,0,1.07,2.7h4.728v5.65a1.79,1.79,0,0,0-.9,1.549v1.8a2.7,2.7,0,0,0-2.7,2.7v.9a2.7,2.7,0,0,0-2.7,2.7v.9a1.8,1.8,0,0,0,1.8,1.8h34.2a1.8,1.8,0,0,0,1.8-1.8v-.9A2.7,2.7,0,0,0,6462.512,1852.707Zm-12.6-3.6v-1.8a1.793,1.793,0,0,0-.9-1.549v-5.65h4.5v5.65a1.793,1.793,0,0,0-.9,1.549v1.8Zm-9.9,0v-1.8a1.794,1.794,0,0,0-.9-1.549v-5.65h4.5v5.65a1.793,1.793,0,0,0-.9,1.549v1.8Zm7.2-3.6h-1.8v-5.4h1.8Zm-2.7,1.8h3.6v1.8h-3.6Zm9.9,0h3.6v1.8h-3.6Zm2.7-1.8h-1.8v-5.4h1.8Zm-16.565-17.1h-2.335v-1.8h3.6v.9Zm-6.835,0v-1.8a1.791,1.791,0,0,0-.9-1.55v-5.65h4.5v5.65a1.794,1.794,0,0,0-.9,1.55v1.8Zm-9.9,0v-1.8a1.8,1.8,0,0,0-.9-1.55v-5.65h4.5v5.65a1.794,1.794,0,0,0-.9,1.55v1.8Zm7.2-3.6h-1.8v-5.4h1.8Zm-2.7,1.8h3.6v1.8h-3.6Zm12.6-1.8h-1.8v-5.4h1.8Zm-11.017-18.826a.357.357,0,0,1,.434,0l16.4,11.626h-33.237Zm-8.782,13.426v5.4h-1.8v-5.4Zm-2.7,7.2h3.6v1.8h-3.6Zm-2.7,4.5a.9.9,0,0,1,.9-.9h21.394l-2.539,1.8h-19.755Zm-2.7,3.6a.9.9,0,0,1,.9-.9h19.016l-2.539,1.8h-17.377Zm33.081-8.027a.361.361,0,0,1,.435,0l16.4,11.627h-33.238Zm-8.782,13.427v5.4h-1.8v-5.4Zm-2.7,7.2h3.6v1.8h-3.6Zm-2.7,4.5a.9.9,0,0,1,.9-.9h27a.9.9,0,0,1,.9.9v.9h-28.8Zm-2.7,4.5v-.9a.9.9,0,0,1,.9-.9h32.4a.9.9,0,0,1,.9.9v.9Z" fill="#fff"/>
    <path id="Path_827" data-name="Path 827" d="M6414.813,1840.108a.9.9,0,0,0-.9.9v5.4a5.406,5.406,0,0,0,5.4,5.4h4.127l-1.163,1.164a.9.9,0,1,0,1.25,1.3l.022-.023,2.7-2.7a.905.905,0,0,0,0-1.275l-2.7-2.7a.9.9,0,0,0-1.272,1.273l1.163,1.165h-4.127a3.6,3.6,0,0,1-3.6-3.6v-5.4A.9.9,0,0,0,6414.813,1840.108Z" fill="#fff"/>
    <path id="Path_828" data-name="Path 828" d="M6455.048,1817.872a.9.9,0,0,0-1.272,1.273l2.7,2.7a.9.9,0,0,0,1.273,0h0l2.7-2.7a.9.9,0,0,0-1.273-1.273l-1.165,1.164v-4.128a5.405,5.405,0,0,0-5.4-5.4h-5.4a.9.9,0,0,0,0,1.8h5.4a3.6,3.6,0,0,1,3.6,3.6v4.128Z" fill="#fff"/>
  </g>
</svg>
