<svg xmlns="http://www.w3.org/2000/svg" xmlns:xlink="http://www.w3.org/1999/xlink" width="302.966" height="265.308" viewBox="0 0 302.966 265.308">
  <defs>
    <clipPath id="clip-path">
      <path id="Path_1056" data-name="Path 1056" d="M3599.354,1713.456l-2.977.441a3.938,3.938,0,0,1,.407-.082l2.976-.441A3.94,3.94,0,0,0,3599.354,1713.456Z" fill="none"/>
    </clipPath>
    <clipPath id="clip-path-2">
      <path id="Path_1062" data-name="Path 1062" d="M3590.2,1730.033l-2.977.441a2.624,2.624,0,0,0,.275-1.879,2.44,2.44,0,0,0-2.709-1.919l2.977-.442a2.442,2.442,0,0,1,2.709,1.92A2.624,2.624,0,0,1,3590.2,1730.033Z" fill="none"/>
    </clipPath>
    <clipPath id="clip-path-3">
      <path id="Path_1064" data-name="Path 1064" d="M3590.728,1709.836l-2.977.441a6.789,6.789,0,0,0-7.526-5.336l2.976-.441A6.789,6.789,0,0,1,3590.728,1709.836Z" fill="none"/>
    </clipPath>
    <clipPath id="clip-path-4">
      <path id="Path_1072" data-name="Path 1072" d="M3572.615,1714.419l-2.977.441a12.427,12.427,0,0,1,8.755-14.917,11.437,11.437,0,0,1,1.133-.228l2.977-.441a11.4,11.4,0,0,0-1.133.228A12.427,12.427,0,0,0,3572.615,1714.419Z" fill="none"/>
    </clipPath>
    <clipPath id="clip-path-5">
      <path id="Path_1075" data-name="Path 1075" d="M3577.494,1748.654l-2.976.441a4.276,4.276,0,0,1-4.75-3.353l2.977-.441A4.276,4.276,0,0,0,3577.494,1748.654Z" fill="none"/>
    </clipPath>
    <clipPath id="clip-path-6">
      <path id="Path_1080" data-name="Path 1080" d="M3568.275,1725.894l-2.976.441a4.481,4.481,0,0,1,3.156-5.375l2.977-.441A4.482,4.482,0,0,0,3568.275,1725.894Z" fill="none"/>
    </clipPath>
  </defs>
  <g id="Group_1004" data-name="Group 1004" transform="translate(-3432.272 -1699.15)">
    <g id="Group_962" data-name="Group 962">
      <g id="Group_953" data-name="Group 953">
        <g id="Group_951" data-name="Group 951">
          <path id="Path_966" data-name="Path 966" d="M3735.238,1832.612l-100.072,72.757-36.756-49.911,100.072-72.757Z" fill="#203571"/>
          <path id="Path_967" data-name="Path 967" d="M3734.539,1833.12l-100.072,72.757-36.756-49.911,100.072-72.757Z" fill="#304faa"/>
          <path id="Path_968" data-name="Path 968" d="M3634.563,1898.216l-29.474-40.022a1.426,1.426,0,0,1,.295-2l90.293-65.648a1.448,1.448,0,0,1,2.011.328l29.474,40.023a1.426,1.426,0,0,1-.3,2l-90.293,65.647A1.447,1.447,0,0,1,3634.563,1898.216Z" fill="#203571"/>
          <path id="Path_969" data-name="Path 969" d="M3710.089,1837.1l-64.4,46.824a9.417,9.417,0,0,0-13.087-2.132l-12.352-16.773a9.278,9.278,0,0,0,1.915-13.038l64.4-46.824a9.417,9.417,0,0,0,13.087,2.131L3712,1824.064A9.279,9.279,0,0,0,3710.089,1837.1Z" fill="#304faa"/>
          <ellipse id="Ellipse_5" data-name="Ellipse 5" cx="17.173" cy="17.464" rx="17.173" ry="17.464" transform="translate(3641.64 1845.121) rotate(-46.833)" fill="#6687e8"/>
        </g>
        <g id="Group_952" data-name="Group 952">
          <path id="Path_970" data-name="Path 970" d="M3734.357,1798.056l-100.072,72.757-36.756-49.911,100.072-72.757Z" fill="#203571"/>
          <path id="Path_971" data-name="Path 971" d="M3733.658,1798.564l-100.072,72.757-36.756-49.911,100.072-72.757Z" fill="#304faa"/>
          <path id="Path_972" data-name="Path 972" d="M3633.682,1863.66l-29.474-40.022a1.427,1.427,0,0,1,.294-2l90.293-65.648a1.448,1.448,0,0,1,2.012.328l29.473,40.023a1.424,1.424,0,0,1-.294,2l-90.293,65.648A1.447,1.447,0,0,1,3633.682,1863.66Z" fill="#203571"/>
          <path id="Path_973" data-name="Path 973" d="M3709.208,1802.546l-64.4,46.825a9.417,9.417,0,0,0-13.087-2.132l-12.352-16.773a9.278,9.278,0,0,0,1.915-13.038l64.4-46.825a9.415,9.415,0,0,0,13.086,2.132l12.353,16.773A9.278,9.278,0,0,0,3709.208,1802.546Z" fill="#304faa"/>
          <path id="Path_974" data-name="Path 974" d="M3651.347,1820.091a17.192,17.192,0,0,1,3.547-24.158,17.448,17.448,0,0,1,24.248,3.95,17.192,17.192,0,0,1-3.548,24.158A17.447,17.447,0,0,1,3651.347,1820.091Z" fill="#6687e8"/>
        </g>
      </g>
      <g id="Group_961" data-name="Group 961">
        <g id="Group_955" data-name="Group 955">
          <path id="Path_975" data-name="Path 975" d="M3648.434,1818.307l8.956,4.825,30.546-57.87c-1.518-.817-2.819,1.647-4.337.829s-.217-3.282-1.735-4.1-2.818,1.647-4.335.83-.215-3.281-1.731-4.1-2.816,1.647-4.332.831-.215-3.281-1.731-4.1-2.817,1.648-4.333.831-.215-3.281-1.731-4.1-2.816,1.648-4.331.831-.214-3.28-1.729-4.1-2.816,1.648-4.331.832-.214-3.28-1.728-4.1l-17.061,32.324,27.427,14.775Z" fill="#aebcf1"/>
          <g id="Group_954" data-name="Group 954">
            <path id="Path_976" data-name="Path 976" d="M3656.768,1822.8l27.6-52.289-36.384-19.6-27.6,52.289Z" fill="#e6efff"/>
            <path id="Path_977" data-name="Path 977" d="M3650.93,1745.327c1.514.816.213,3.28,1.727,4.1s2.816-1.648,4.332-.832.214,3.28,1.728,4.1,2.816-1.648,4.332-.831.215,3.28,1.731,4.1,2.816-1.648,4.333-.831.215,3.281,1.731,4.1,2.816-1.647,4.332-.831.215,3.281,1.73,4.1,2.818-1.646,4.335-.829.218,3.282,1.736,4.1,2.819-1.647,4.337-.829l-2.946,5.581-36.384-19.6Z" fill="#e6efff"/>
            <path id="Path_978" data-name="Path 978" d="M3668.742,1780.892l-20.673-11.137.459-.87,20.673,11.136Z" fill="#aebcf1"/>
            <path id="Path_979" data-name="Path 979" d="M3666.867,1784.444l-20.673-11.137.459-.87,20.673,11.136Z" fill="#aebcf1"/>
            <path id="Path_980" data-name="Path 980" d="M3664.993,1787.995l-20.673-11.136.459-.87,20.673,11.137Z" fill="#aebcf1"/>
            <path id="Path_981" data-name="Path 981" d="M3663.118,1791.546l-20.673-11.136.459-.87,20.673,11.137Z" fill="#aebcf1"/>
            <path id="Path_982" data-name="Path 982" d="M3661.244,1795.1l-20.673-11.136.459-.87,20.673,11.136Z" fill="#aebcf1"/>
            <path id="Path_983" data-name="Path 983" d="M3659.369,1798.649l-20.673-11.136.459-.87,20.673,11.137Z" fill="#aebcf1"/>
          </g>
        </g>
        <g id="Group_960" data-name="Group 960">
          <path id="Path_984" data-name="Path 984" d="M3596.669,1963.187l-45.029-24.257a10.564,10.564,0,0,1-4.6-13.807l61.908-124.037a14.751,14.751,0,0,1,20.277-6.261l42.663,22.982a15.053,15.053,0,0,1,6.152,20.5l-67.456,121.048A10.349,10.349,0,0,1,3596.669,1963.187Z" fill="#203571"/>
          <path id="Path_985" data-name="Path 985" d="M3589.748,1959.458l-45.029-24.257a10.563,10.563,0,0,1-4.6-13.806l61.908-124.037a14.751,14.751,0,0,1,20.277-6.261l42.663,22.982a15.053,15.053,0,0,1,6.152,20.5l-67.456,121.048A10.347,10.347,0,0,1,3589.748,1959.458Z" fill="#304faa"/>
          <path id="Path_986" data-name="Path 986" d="M3641.394,1844.044a37.465,37.465,0,0,1,3.855.154l0-.122q9.4.817,18.819,1.543l6.37-11.429a13.927,13.927,0,0,0,1.156-10.87,14.346,14.346,0,0,0-6.987-8.556l-42.662-22.982a14.1,14.1,0,0,0-10.925-1.094,13.691,13.691,0,0,0-8.291,7.027l-23.48,47.042C3599.8,1842.517,3620.7,1843.123,3641.394,1844.044Z" fill="#304faa"/>
          <path id="Path_987" data-name="Path 987" d="M3545.081,1934.516l4.009,2.16c2.574-.382,5.155-.725,7.753-.98,14.412-1.412,28.944-1.177,43.424-.572q6.775.282,13.561.642l19.688-35.33c-8.933-.375-17.868-.656-26.8-.62a222.068,222.068,0,0,0-51,7.771c-3.241,1.037-6.441,2.183-9.566,3.495l-5.32,10.659A9.744,9.744,0,0,0,3545.081,1934.516Z" fill="#4069e2"/>
          <path id="Path_988" data-name="Path 988" d="M3641.8,1878.367a16.826,16.826,0,0,1-21.126,7.7,158.932,158.932,0,0,1-33.227-17.891,17.206,17.206,0,0,1-5.494-22.046l21.428-40.6a16.773,16.773,0,0,1,19.957-8.11,108.312,108.312,0,0,1,35.4,19.062,17.147,17.147,0,0,1,4.488,21.288Z" fill="#29335a"/>
          <path id="Path_989" data-name="Path 989" d="M3635.889,1872.856l-44.4-23.916a3.1,3.1,0,0,1-1.3-4.155l17.582-33.311a3.035,3.035,0,0,1,4.139-1.227l44.4,23.916a3.1,3.1,0,0,1,1.3,4.155l-17.583,33.311A3.036,3.036,0,0,1,3635.889,1872.856Z" fill="#fff"/>
          <g id="Group_956" data-name="Group 956">
            <path id="Path_990" data-name="Path 990" d="M3590.124,1864.536l-7.369-6.843a1.179,1.179,0,0,1-.248-1.41l1.274-2.413a1.158,1.158,0,0,1,1.58-.469l8.55,4.606a1.182,1.182,0,0,1,.5,1.587l-2.454,4.65A1.165,1.165,0,0,1,3590.124,1864.536Z" fill="#343f67"/>
            <path id="Path_991" data-name="Path 991" d="M3624,1882.783l9.731,2.368a1.152,1.152,0,0,0,1.3-.577l1.274-2.413a1.184,1.184,0,0,0-.5-1.587l-8.549-4.606a1.16,1.16,0,0,0-1.581.469l-2.455,4.651A1.186,1.186,0,0,0,3624,1882.783Z" fill="#343f67"/>
            <path id="Path_992" data-name="Path 992" d="M3604.116,1873.443l-9.527-5.132a1.182,1.182,0,0,1-.5-1.587l3-5.683a1.16,1.16,0,0,1,1.581-.468l9.527,5.132a1.182,1.182,0,0,1,.5,1.587l-3,5.683A1.158,1.158,0,0,1,3604.116,1873.443Z" fill="#343f67"/>
            <path id="Path_993" data-name="Path 993" d="M3618.65,1881.273l-9.527-5.132a1.183,1.183,0,0,1-.5-1.587l3-5.683a1.159,1.159,0,0,1,1.581-.469l9.527,5.132a1.182,1.182,0,0,1,.495,1.587l-3,5.683A1.159,1.159,0,0,1,3618.65,1881.273Z" fill="#343f67"/>
          </g>
          <g id="Group_957" data-name="Group 957">
            <path id="Path_994" data-name="Path 994" d="M3589.432,1864.163l-7.369-6.843a1.179,1.179,0,0,1-.248-1.41l1.273-2.413a1.159,1.159,0,0,1,1.581-.469l8.55,4.606a1.183,1.183,0,0,1,.5,1.587l-2.454,4.65A1.165,1.165,0,0,1,3589.432,1864.163Z" fill="#fff"/>
            <path id="Path_995" data-name="Path 995" d="M3623.3,1882.411l9.731,2.367a1.151,1.151,0,0,0,1.3-.577l1.274-2.413a1.184,1.184,0,0,0-.5-1.587l-8.549-4.605a1.16,1.16,0,0,0-1.581.468l-2.455,4.651A1.187,1.187,0,0,0,3623.3,1882.411Z" fill="#fff"/>
            <path id="Path_996" data-name="Path 996" d="M3603.424,1873.07l-9.527-5.132a1.184,1.184,0,0,1-.5-1.587l3-5.683a1.16,1.16,0,0,1,1.581-.468l9.526,5.132a1.182,1.182,0,0,1,.5,1.587l-3,5.683A1.157,1.157,0,0,1,3603.424,1873.07Z" fill="#fff"/>
            <path id="Path_997" data-name="Path 997" d="M3617.958,1880.9l-9.527-5.132a1.182,1.182,0,0,1-.495-1.587l3-5.683a1.16,1.16,0,0,1,1.581-.469l9.527,5.132a1.183,1.183,0,0,1,.5,1.587l-3,5.683A1.159,1.159,0,0,1,3617.958,1880.9Z" fill="#fff"/>
          </g>
          <g id="Group_958" data-name="Group 958">
            <path id="Path_998" data-name="Path 998" d="M3603.147,1894.508l-10.92-5.883a3.171,3.171,0,0,1-1.329-4.256l1.851-3.506a3.107,3.107,0,0,1,4.238-1.257l10.921,5.883a3.173,3.173,0,0,1,1.329,4.256l-1.851,3.506A3.107,3.107,0,0,1,3603.147,1894.508Z" fill="#343f67"/>
            <path id="Path_999" data-name="Path 999" d="M3623.412,1903.665l-11.643-4.513a3.172,3.172,0,0,1-1.33-4.256l1.851-3.506a3.108,3.108,0,0,1,4.239-1.257l11.644,4.513a3.172,3.172,0,0,1,1.329,4.255l-1.851,3.507A3.108,3.108,0,0,1,3623.412,1903.665Z" fill="#343f67"/>
            <path id="Path_1000" data-name="Path 1000" d="M3616.786,1916.217l-11.282-5.2a3.173,3.173,0,0,1-1.329-4.256l1.851-3.507a3.108,3.108,0,0,1,4.239-1.256l11.282,5.2a3.171,3.171,0,0,1,1.329,4.256l-1.851,3.507A3.108,3.108,0,0,1,3616.786,1916.217Z" fill="#343f67"/>
            <path id="Path_1001" data-name="Path 1001" d="M3609.492,1927.53l-11.282-5.2a3.171,3.171,0,0,1-1.329-4.256l1.85-3.507a3.109,3.109,0,0,1,4.239-1.256l11.282,5.2a3.171,3.171,0,0,1,1.33,4.255l-1.851,3.507A3.109,3.109,0,0,1,3609.492,1927.53Z" fill="#343f67"/>
            <path id="Path_1002" data-name="Path 1002" d="M3603.228,1939.4l-11.282-5.2a3.171,3.171,0,0,1-1.329-4.256l1.851-3.506a3.107,3.107,0,0,1,4.238-1.257l11.282,5.2a3.171,3.171,0,0,1,1.329,4.256l-1.85,3.506A3.108,3.108,0,0,1,3603.228,1939.4Z" fill="#343f67"/>
            <path id="Path_1003" data-name="Path 1003" d="M3596.717,1950.376l-11.282-5.2a3.17,3.17,0,0,1-1.329-4.255l1.851-3.507a3.108,3.108,0,0,1,4.239-1.257l11.282,5.2a3.173,3.173,0,0,1,1.329,4.256l-1.851,3.507A3.108,3.108,0,0,1,3596.717,1950.376Z" fill="#343f67"/>
            <path id="Path_1004" data-name="Path 1004" d="M3573.286,1876.662l10.2,7.253a3.107,3.107,0,0,0,4.239-1.257l1.851-3.506a3.173,3.173,0,0,0-1.329-4.256l-10.2-7.253a3.108,3.108,0,0,0-4.239,1.256l-1.851,3.507A3.173,3.173,0,0,0,3573.286,1876.662Z" fill="#343f67"/>
            <path id="Path_1005" data-name="Path 1005" d="M3566.661,1889.215l10.558,6.568a3.108,3.108,0,0,0,4.239-1.257l1.851-3.506a3.174,3.174,0,0,0-1.329-4.257l-10.559-6.567a3.108,3.108,0,0,0-4.239,1.256l-1.851,3.507A3.173,3.173,0,0,0,3566.661,1889.215Z" fill="#343f67"/>
            <path id="Path_1006" data-name="Path 1006" d="M3561.427,1901.637l10.559,6.568a3.109,3.109,0,0,0,4.239-1.256l1.851-3.507a3.172,3.172,0,0,0-1.33-4.256l-10.558-6.568a3.108,3.108,0,0,0-4.239,1.257l-1.851,3.506A3.173,3.173,0,0,0,3561.427,1901.637Z" fill="#343f67"/>
            <path id="Path_1007" data-name="Path 1007" d="M3555.163,1913.505l10.559,6.568a3.109,3.109,0,0,0,4.239-1.257l1.85-3.506a3.171,3.171,0,0,0-1.329-4.256l-10.558-6.568a3.107,3.107,0,0,0-4.239,1.256l-1.851,3.507A3.172,3.172,0,0,0,3555.163,1913.505Z" fill="#343f67"/>
            <path id="Path_1008" data-name="Path 1008" d="M3549.767,1925.084l10.558,6.568a3.108,3.108,0,0,0,4.239-1.256l1.851-3.507a3.172,3.172,0,0,0-1.329-4.256l-10.559-6.568a3.109,3.109,0,0,0-4.239,1.256l-1.85,3.507A3.171,3.171,0,0,0,3549.767,1925.084Z" fill="#343f67"/>
            <path id="Path_1009" data-name="Path 1009" d="M3596.883,1906.375l-10.92-5.882a3.171,3.171,0,0,1-1.329-4.256l1.85-3.507a3.108,3.108,0,0,1,4.239-1.256l10.921,5.882a3.173,3.173,0,0,1,1.329,4.256l-1.851,3.507A3.108,3.108,0,0,1,3596.883,1906.375Z" fill="#343f67"/>
            <path id="Path_1010" data-name="Path 1010" d="M3590.619,1918.243l-10.92-5.883a3.171,3.171,0,0,1-1.329-4.256l1.85-3.506a3.108,3.108,0,0,1,4.239-1.257l10.921,5.883a3.173,3.173,0,0,1,1.329,4.256l-1.851,3.506A3.108,3.108,0,0,1,3590.619,1918.243Z" fill="#343f67"/>
            <path id="Path_1011" data-name="Path 1011" d="M3584.355,1930.11l-10.92-5.882a3.173,3.173,0,0,1-1.33-4.256l1.851-3.507a3.108,3.108,0,0,1,4.239-1.256l10.921,5.882a3.173,3.173,0,0,1,1.329,4.256l-1.851,3.507A3.108,3.108,0,0,1,3584.355,1930.11Z" fill="#343f67"/>
            <path id="Path_1012" data-name="Path 1012" d="M3578.091,1941.978l-10.92-5.883a3.171,3.171,0,0,1-1.329-4.256l1.85-3.507a3.109,3.109,0,0,1,4.239-1.256l10.92,5.883a3.172,3.172,0,0,1,1.33,4.256l-1.851,3.506A3.109,3.109,0,0,1,3578.091,1941.978Z" fill="#343f67"/>
          </g>
          <g id="Group_959" data-name="Group 959">
            <path id="Path_1013" data-name="Path 1013" d="M3602.455,1894.135l-10.92-5.883a3.171,3.171,0,0,1-1.329-4.256l1.85-3.506a3.109,3.109,0,0,1,4.239-1.257l10.921,5.883a3.173,3.173,0,0,1,1.329,4.256l-1.851,3.507A3.108,3.108,0,0,1,3602.455,1894.135Z" fill="#29335a"/>
            <path id="Path_1014" data-name="Path 1014" d="M3606.795,1890.182l.72-1.365a2,2,0,0,0-.838-2.681l-10.92-5.882a1.959,1.959,0,0,0-2.67.79l-1.072,2.031A159.482,159.482,0,0,0,3606.795,1890.182Z" fill="#3e4b75"/>
            <path id="Path_1015" data-name="Path 1015" d="M3622.72,1903.292l-11.644-4.513a3.173,3.173,0,0,1-1.329-4.256l1.851-3.506a3.109,3.109,0,0,1,4.239-1.257l11.644,4.513a3.173,3.173,0,0,1,1.329,4.256l-1.851,3.506A3.109,3.109,0,0,1,3622.72,1903.292Z" fill="#29335a"/>
            <path id="Path_1016" data-name="Path 1016" d="M3627,1895.324l-11.635-4.508-.066-.036a1.96,1.96,0,0,0-2.67.791l-.426.807c5.163,2.02,10.386,3.858,15.58,5.589A2,2,0,0,0,3627,1895.324Z" fill="#3e4b75"/>
            <path id="Path_1017" data-name="Path 1017" d="M3616.094,1915.844l-11.282-5.2a3.173,3.173,0,0,1-1.329-4.256l1.851-3.507a3.107,3.107,0,0,1,4.239-1.256l11.282,5.2a3.171,3.171,0,0,1,1.329,4.256l-1.851,3.507A3.107,3.107,0,0,1,3616.094,1915.844Z" fill="#29335a"/>
            <path id="Path_1018" data-name="Path 1018" d="M3621.154,1910.526a1.988,1.988,0,0,0-.771-2.648l-11.348-5.231a1.96,1.96,0,0,0-2.671.792l-1.119,2.12c4.868,2.519,9.821,4.849,14.877,6.922Z" fill="#3e4b75"/>
            <path id="Path_1019" data-name="Path 1019" d="M3608.8,1927.157l-11.282-5.2a3.171,3.171,0,0,1-1.329-4.256l1.851-3.506a3.107,3.107,0,0,1,4.238-1.257l11.282,5.2a3.171,3.171,0,0,1,1.329,4.256l-1.85,3.506A3.109,3.109,0,0,1,3608.8,1927.157Z" fill="#29335a"/>
            <path id="Path_1020" data-name="Path 1020" d="M3613.86,1921.839a1.989,1.989,0,0,0-.771-2.648l-11.349-5.231a1.959,1.959,0,0,0-2.67.792l-.528,1c5.02,2.25,10.095,4.363,15.16,6.386Z" fill="#3e4b75"/>
            <path id="Path_1021" data-name="Path 1021" d="M3602.536,1939.024l-11.282-5.2a3.173,3.173,0,0,1-1.33-4.256l1.851-3.507a3.108,3.108,0,0,1,4.239-1.256l11.282,5.2a3.171,3.171,0,0,1,1.329,4.256l-1.85,3.507A3.108,3.108,0,0,1,3602.536,1939.024Z" fill="#29335a"/>
            <path id="Path_1022" data-name="Path 1022" d="M3606.389,1935.993l1.207-2.286a1.99,1.99,0,0,0-.771-2.649l-11.349-5.23a1.96,1.96,0,0,0-2.671.791l-1.03,1.952C3596.595,1931.187,3601.451,1933.694,3606.389,1935.993Z" fill="#3e4b75"/>
            <path id="Path_1023" data-name="Path 1023" d="M3596.025,1950l-11.282-5.2a3.171,3.171,0,0,1-1.329-4.256l1.851-3.507a3.106,3.106,0,0,1,4.238-1.256l11.282,5.2a3.173,3.173,0,0,1,1.33,4.256l-1.851,3.507A3.108,3.108,0,0,1,3596.025,1950Z" fill="#fff"/>
            <path id="Path_1024" data-name="Path 1024" d="M3572.594,1876.289l10.2,7.253a3.108,3.108,0,0,0,4.239-1.256l1.851-3.507a3.173,3.173,0,0,0-1.329-4.256l-10.2-7.253a3.108,3.108,0,0,0-4.239,1.257l-1.851,3.506A3.173,3.173,0,0,0,3572.594,1876.289Z" fill="#29335a"/>
            <path id="Path_1025" data-name="Path 1025" d="M3587.014,1875.544l-.066-.036-10.189-7.248a1.958,1.958,0,0,0-2.613.821l-.658,1.248a100.129,100.129,0,0,0,13.381,9.756l.983-1.861A2,2,0,0,0,3587.014,1875.544Z" fill="#3e4b75"/>
            <path id="Path_1026" data-name="Path 1026" d="M3565.969,1888.842l10.558,6.568a3.109,3.109,0,0,0,4.239-1.257l1.851-3.506a3.173,3.173,0,0,0-1.329-4.256l-10.559-6.568a3.108,3.108,0,0,0-4.239,1.256l-1.851,3.507A3.173,3.173,0,0,0,3565.969,1888.842Z" fill="#29335a"/>
            <path id="Path_1027" data-name="Path 1027" d="M3580.686,1887.373l-10.5-6.531a1.959,1.959,0,0,0-2.67.792l-.677,1.281c4.645,2.833,9.3,5.728,13.99,8.6l.753-1.427A2.021,2.021,0,0,0,3580.686,1887.373Z" fill="#3e4b75"/>
            <path id="Path_1028" data-name="Path 1028" d="M3560.735,1901.264l10.559,6.568a3.108,3.108,0,0,0,4.239-1.256l1.85-3.507a3.171,3.171,0,0,0-1.329-4.256l-10.558-6.568a3.108,3.108,0,0,0-4.239,1.257l-1.851,3.506A3.171,3.171,0,0,0,3560.735,1901.264Z" fill="#29335a"/>
            <path id="Path_1029" data-name="Path 1029" d="M3575.451,1899.8l-10.494-6.53a1.961,1.961,0,0,0-2.671.792l-.412.78a149.312,149.312,0,0,0,13.7,9.158l.781-1.481A2.022,2.022,0,0,0,3575.451,1899.8Z" fill="#3e4b75"/>
            <path id="Path_1030" data-name="Path 1030" d="M3554.471,1913.132l10.559,6.568a3.108,3.108,0,0,0,4.238-1.257l1.851-3.506a3.171,3.171,0,0,0-1.329-4.256l-10.558-6.568a3.108,3.108,0,0,0-4.239,1.256l-1.851,3.507A3.172,3.172,0,0,0,3554.471,1913.132Z" fill="#29335a"/>
            <path id="Path_1031" data-name="Path 1031" d="M3569.187,1911.663l-10.494-6.53a1.959,1.959,0,0,0-2.671.791l-1.258,2.384c4.905,2.421,9.721,5,14.493,7.651l.832-1.577A2.022,2.022,0,0,0,3569.187,1911.663Z" fill="#3e4b75"/>
            <path id="Path_1032" data-name="Path 1032" d="M3549.075,1924.711l10.558,6.568a3.108,3.108,0,0,0,4.239-1.256l1.851-3.507a3.173,3.173,0,0,0-1.329-4.256l-10.559-6.568a3.109,3.109,0,0,0-4.239,1.257l-1.851,3.506A3.172,3.172,0,0,0,3549.075,1924.711Z" fill="#a3b7f1"/>
            <path id="Path_1033" data-name="Path 1033" d="M3596.191,1906l-10.92-5.883a3.171,3.171,0,0,1-1.329-4.256l1.85-3.507a3.108,3.108,0,0,1,4.239-1.256l10.921,5.882a3.174,3.174,0,0,1,1.329,4.257l-1.851,3.506A3.109,3.109,0,0,1,3596.191,1906Z" fill="#29335a"/>
            <path id="Path_1034" data-name="Path 1034" d="M3600.414,1898l-10.92-5.883a1.96,1.96,0,0,0-2.671.792l-.9,1.7c4.679,2.823,9.4,5.588,14.2,8.211l1.13-2.141A2,2,0,0,0,3600.414,1898Z" fill="#3e4b75"/>
            <path id="Path_1035" data-name="Path 1035" d="M3589.927,1917.87l-10.92-5.883a3.172,3.172,0,0,1-1.33-4.256l1.851-3.506a3.108,3.108,0,0,1,4.239-1.257l10.92,5.883a3.172,3.172,0,0,1,1.33,4.256l-1.851,3.506A3.108,3.108,0,0,1,3589.927,1917.87Z" fill="#29335a"/>
            <path id="Path_1036" data-name="Path 1036" d="M3594.32,1913.816l.667-1.264a2,2,0,0,0-.837-2.681l-10.921-5.883a1.959,1.959,0,0,0-2.67.792l-.844,1.6C3584.465,1909.031,3589.355,1911.495,3594.32,1913.816Z" fill="#3e4b75"/>
            <path id="Path_1037" data-name="Path 1037" d="M3583.663,1929.737l-10.92-5.882a3.173,3.173,0,0,1-1.33-4.256l1.851-3.507a3.108,3.108,0,0,1,4.239-1.256l10.92,5.883a3.171,3.171,0,0,1,1.33,4.255l-1.851,3.507A3.108,3.108,0,0,1,3583.663,1929.737Z" fill="#29335a"/>
            <path id="Path_1038" data-name="Path 1038" d="M3587.885,1921.738l-10.92-5.882a1.96,1.96,0,0,0-2.671.791l-.867,1.643c4.774,2.687,9.52,5.4,14.284,8.047l1.012-1.917A2,2,0,0,0,3587.885,1921.738Z" fill="#3e4b75"/>
            <path id="Path_1039" data-name="Path 1039" d="M3577.4,1941.6l-10.92-5.883a3.172,3.172,0,0,1-1.33-4.256l1.851-3.506a3.108,3.108,0,0,1,4.239-1.257l10.92,5.883a3.172,3.172,0,0,1,1.33,4.256l-1.851,3.506A3.108,3.108,0,0,1,3577.4,1941.6Z" fill="#fff"/>
          </g>
        </g>
      </g>
    </g>
    <g id="Group_970" data-name="Group 970">
      <g id="Group_963" data-name="Group 963">
        <path id="Path_1040" data-name="Path 1040" d="M3532.533,1842.764a46.068,46.068,0,0,1-16.176,7.448l9.338,13.275a18.047,18.047,0,0,0,30.524-10.322,18.471,18.471,0,0,0-3.34-13.358l-7.642-10.864a11.438,11.438,0,0,0-2.915,2.107C3539.337,1835.439,3537.073,1839.482,3532.533,1842.764Zm12.042,16.4a2.875,2.875,0,0,1-4.05-.656,2.964,2.964,0,0,1,.708-4.094,2.875,2.875,0,0,1,4.05.655A2.965,2.965,0,0,1,3544.575,1859.165Zm-4.784-6.8a2.875,2.875,0,0,1-4.05-.655,2.967,2.967,0,0,1,.709-4.095,2.874,2.874,0,0,1,4.049.655A2.965,2.965,0,0,1,3539.791,1852.364Z" fill="#29335a"/>
        <path id="Path_1041" data-name="Path 1041" d="M3469.018,1718.14l-34.44,24.894a1.93,1.93,0,0,0-.461,2.665l12.636,17.964a1.87,1.87,0,0,0,2.635.427l2.689-1.943,8.948,12.721a46.818,46.818,0,0,1,12.7-13.821c4.166-3.011,8.636-3.9,13.262-5.342.96-.3,1.944-1.871,2.914-2.107l-8.764-12.459,2.689-1.943a1.931,1.931,0,0,0,.461-2.665l-12.636-17.964A1.871,1.871,0,0,0,3469.018,1718.14Zm-27.742,28.574,28.992-20.956,9.151,13.01-12.953,9.363-3.524-5.01a1.864,1.864,0,0,0-2.627-.425,1.923,1.923,0,0,0-.459,2.656l3.524,5.01-12.953,9.362Z" fill="#29335a"/>
        <path id="Path_1042" data-name="Path 1042" d="M3460.315,1742.7l-1.661,1.2.735,1.045,3.283.531Z" fill="#29335a"/>
        <path id="Path_1043" data-name="Path 1043" d="M3467.518,1719.225l-34.441,24.894a1.931,1.931,0,0,0-.461,2.665l12.636,17.964a1.872,1.872,0,0,0,2.636.426l2.688-1.943,8.948,12.721a46.85,46.85,0,0,1,12.7-13.821,46.059,46.059,0,0,1,16.176-7.448l-8.764-12.46,2.688-1.943a1.929,1.929,0,0,0,.461-2.665l-12.635-17.964A1.872,1.872,0,0,0,3467.518,1719.225Zm-27.743,28.574,28.992-20.956,9.152,13.01-12.953,9.362-3.524-5.01a1.865,1.865,0,0,0-2.627-.425,1.923,1.923,0,0,0-.46,2.656l3.524,5.01-12.953,9.363Z" fill="#304faa"/>
        <path id="Path_1044" data-name="Path 1044" d="M3543.119,1773.181a44.728,44.728,0,0,0-17.434-14.738,89.288,89.288,0,0,1-8.641-4.6l-12.157-7.506a12.076,12.076,0,0,0-13.431.55h0l5.546,7.884a46.122,46.122,0,0,0-17.836,7.847,46.846,46.846,0,0,0-13.588,15.322l-5.758-8.186-5.929,4.286,4.746,22.019a92.082,92.082,0,0,1,1.475,9.781,45.559,45.559,0,0,0,8.064,21.511,44.684,44.684,0,0,0,17.507,14.764,94.714,94.714,0,0,1,9.37,4.935l18.019,11.126,6.6-4.77-5.546-7.884h0q1.151-.234,2.291-.53l.068-.017q1.1-.285,2.184-.626l.162-.051q1.024-.325,2.041-.7l.277-.1c.632-.238,1.26-.494,1.885-.763.13-.055.26-.108.389-.164.581-.256,1.158-.529,1.732-.811.164-.081.329-.156.493-.239.539-.273,1.072-.563,1.6-.858.187-.1.376-.2.562-.308.526-.3,1.045-.623,1.564-.948.179-.113.362-.217.541-.332q1.032-.667,2.041-1.393h0q1.032-.747,2.009-1.54c.21-.169.41-.347.616-.519.438-.366.873-.734,1.3-1.113.231-.208.452-.421.678-.632.383-.359.763-.719,1.131-1.088.225-.225.443-.454.663-.682q.535-.558,1.051-1.13.311-.345.613-.7c.342-.4.675-.8,1-1.2.183-.227.367-.455.545-.686.338-.435.665-.877.986-1.323.151-.209.3-.416.451-.627.351-.5.687-1.016,1.017-1.532.1-.161.21-.319.31-.48q.636-1.023,1.219-2.071l5.759,8.187h0a11.2,11.2,0,0,0,4.394-11.406l-2.969-13.775a97.741,97.741,0,0,1-1.549-10.588A45.531,45.531,0,0,0,3543.119,1773.181Z" fill="#29335a"/>
        <path id="Path_1045" data-name="Path 1045" d="M3538.747,1776.342a44.733,44.733,0,0,0-17.437-14.74,89.176,89.176,0,0,1-8.639-4.6l-18.989-11.725-6.6,4.77,5.545,7.884a46.121,46.121,0,0,0-17.836,7.846,46.858,46.858,0,0,0-13.587,15.323l-5.758-8.186-5.93,4.285,4.747,22.02a91.771,91.771,0,0,1,1.474,9.778,45.569,45.569,0,0,0,8.064,21.514,44.7,44.7,0,0,0,17.508,14.764,94.659,94.659,0,0,1,9.37,4.935l18.019,11.125,6.6-4.769-5.545-7.884h0q1.149-.234,2.291-.529l.068-.018q1.1-.285,2.183-.626l.162-.05q1.026-.327,2.041-.7c.092-.035.185-.067.277-.1.633-.239,1.261-.495,1.886-.763.129-.056.259-.108.388-.165.581-.256,1.158-.529,1.732-.811.164-.08.33-.156.494-.238.539-.273,1.072-.563,1.6-.859.187-.1.376-.2.562-.307.526-.3,1.045-.623,1.563-.948.18-.113.363-.217.542-.333.687-.444,1.369-.907,2.04-1.393h0c.688-.5,1.356-1.012,2.009-1.539.21-.17.409-.348.616-.52.437-.366.873-.734,1.294-1.113.231-.207.453-.421.678-.632.383-.358.763-.719,1.132-1.087.224-.225.443-.454.662-.683.357-.372.709-.747,1.052-1.129.207-.231.41-.463.612-.7q.513-.6,1-1.2c.184-.228.367-.455.546-.686.338-.436.665-.878.986-1.323.15-.209.3-.416.45-.627.351-.505.688-1.017,1.018-1.533.1-.16.21-.318.31-.48q.636-1.022,1.219-2.07l5.758,8.186,5.93-4.286-4.505-20.894a97.739,97.739,0,0,1-1.548-10.588A45.534,45.534,0,0,0,3538.747,1776.342Z" fill="#304faa"/>
        <path id="Path_1046" data-name="Path 1046" d="M3547.369,1831.192l-4.735-6.732a1.744,1.744,0,0,0-1.546-.738,1.781,1.781,0,0,0-.935.337,1.822,1.822,0,0,0-.529.6c-.372.674-.765,1.335-1.172,1.991l-.3.471c-.311.482-.632.975-.971,1.461l-.43.6c-.313.435-.627.859-.95,1.274-.175.228-.349.444-.524.66-.317.392-.636.777-.965,1.161l-.591.668c-.326.363-.663.724-1.006,1.082-.246.257-.438.458-.638.656-.354.357-.719.7-1.087,1.045l-.654.61c-.4.365-.823.719-1.242,1.069l-.6.506c-.621.5-1.263.994-1.927,1.474q-.97.7-1.962,1.339l-.521.321c-.5.31-1,.621-1.505.914l-.544.3c-.5.279-1.016.558-1.533.819l-.47.228c-.56.274-1.112.535-1.671.781l-.213.092c-.764.327-1.368.573-1.974.8l-.239.085c-.677.252-1.33.477-1.987.686-.851.268-1.551.469-2.25.649-.8.208-1.535.376-2.271.527a1.8,1.8,0,0,0-.693.305,1.84,1.84,0,0,0-.627.8,1.8,1.8,0,0,0,.193,1.706l4.521,6.429-4.174,3.017-17.018-10.507a95.985,95.985,0,0,0-9.541-5.028,43.191,43.191,0,0,1-16.825-14.189,44.011,44.011,0,0,1-7.75-20.675,92.48,92.48,0,0,0-1.5-9.969l-4.5-20.858,3.5-2.533,4.735,6.731a1.747,1.747,0,0,0,1.546.739,1.8,1.8,0,0,0,.935-.337,1.832,1.832,0,0,0,.529-.6,44.777,44.777,0,0,1,13.057-14.726,44.159,44.159,0,0,1,17.142-7.542,1.784,1.784,0,0,0,.7-.305,1.819,1.819,0,0,0,.625-.8,1.8,1.8,0,0,0-.191-1.707l-4.522-6.428,4.173-3.017,17.988,11.108a89.634,89.634,0,0,0,8.808,4.689,43.228,43.228,0,0,1,16.754,14.166,43.992,43.992,0,0,1,7.752,20.748,99.907,99.907,0,0,0,1.578,10.783l4.255,19.733Z" fill="#304faa"/>
        <ellipse id="Ellipse_6" data-name="Ellipse 6" cx="34.729" cy="34.149" rx="34.729" ry="34.149" transform="translate(3454.437 1816.786) rotate(-60.438)" fill="#fff"/>
        <path id="Path_1047" data-name="Path 1047" d="M3530.154,1844.483a46.079,46.079,0,0,1-16.176,7.449l7.354,10.455a18.167,18.167,0,0,0,13.918,7.929,17.93,17.93,0,0,0,12.131-3.99,18.16,18.16,0,0,0,3.119-24.8l-7.643-10.865A46.817,46.817,0,0,1,3530.154,1844.483Zm12.042,16.4a2.876,2.876,0,0,1-4.05-.656,2.965,2.965,0,0,1,.708-4.095,2.876,2.876,0,0,1,4.05.656A2.965,2.965,0,0,1,3542.2,1860.885Zm-4.784-6.8a2.875,2.875,0,0,1-4.05-.656,2.964,2.964,0,0,1,.709-4.094,2.873,2.873,0,0,1,4.049.655A2.965,2.965,0,0,1,3537.412,1854.084Z" fill="#304faa"/>
        <path id="Path_1048" data-name="Path 1048" d="M3455.049,1769.59l4.475,6.362a46.85,46.85,0,0,1,12.7-13.821,46.059,46.059,0,0,1,16.176-7.448l-4.291-6.1Z" fill="#203571"/>
        <path id="Path_1049" data-name="Path 1049" d="M3532.7,1760.334c2.638,2.007,3.99,4.676,3.021,5.962s-3.158-.273-5.8-2.279-4.726-3.7-3.757-4.986S3530.057,1758.328,3532.7,1760.334Z" fill="#304faa"/>
        <path id="Path_1050" data-name="Path 1050" d="M3551.233,1785.017c1.244,3.094,1.056,6.106-.42,6.727s-2.56-1.854-3.8-4.948-2.176-5.634-.7-6.256S3549.989,1781.923,3551.233,1785.017Z" fill="#304faa"/>
      </g>
      <g id="Group_969" data-name="Group 969">
        <g id="Group_967" data-name="Group 967">
          <g id="Group_964" data-name="Group 964">
            <path id="Path_1051" data-name="Path 1051" d="M3511.368,1806.663a1.588,1.588,0,0,1-1.551.073,7.817,7.817,0,0,0-11.347,7.127,1.569,1.569,0,0,1-1.575,1.6,1.633,1.633,0,0,1-1.62-1.609,10.965,10.965,0,0,1,15.916-10,1.628,1.628,0,0,1,.756,2.151A1.564,1.564,0,0,1,3511.368,1806.663Z" fill="#a3b7f1"/>
          </g>
          <g id="Group_965" data-name="Group 965">
            <path id="Path_1052" data-name="Path 1052" d="M3514.154,1800.845a1.588,1.588,0,0,1-1.551.073,14.191,14.191,0,0,0-20.6,12.937,1.569,1.569,0,0,1-1.575,1.6,1.631,1.631,0,0,1-1.62-1.608,17.338,17.338,0,0,1,25.167-15.807,1.628,1.628,0,0,1,.756,2.152A1.558,1.558,0,0,1,3514.154,1800.845Z" fill="#a3b7f1"/>
          </g>
          <g id="Group_966" data-name="Group 966">
            <path id="Path_1053" data-name="Path 1053" d="M3516.153,1794.656a1.587,1.587,0,0,1-1.5.1,20.551,20.551,0,0,0-29.115,18.286,1.572,1.572,0,0,1-1.637,1.54,1.635,1.635,0,0,1-1.559-1.669,23.7,23.7,0,0,1,33.574-21.087,1.632,1.632,0,0,1,.837,2.123A1.563,1.563,0,0,1,3516.153,1794.656Z" fill="#a3b7f1"/>
          </g>
        </g>
        <g id="Group_968" data-name="Group 968">
          <path id="Path_1054" data-name="Path 1054" d="M3503.061,1814.621a3.224,3.224,0,1,1,4.481,1.056A3.241,3.241,0,0,1,3503.061,1814.621Z" fill="#a3b7f1"/>
        </g>
      </g>
    </g>
    <g id="Group_1003" data-name="Group 1003">
      <g id="Group_1002" data-name="Group 1002">
        <g id="Group_1001" data-name="Group 1001" style="isolation: isolate">
          <g id="Group_973" data-name="Group 973" style="isolation: isolate">
            <g id="Group_972" data-name="Group 972" clip-path="url(#clip-path)">
              <g id="Group_971" data-name="Group 971" style="isolation: isolate">
                <path id="Path_1055" data-name="Path 1055" d="M3599.354,1713.456l-2.977.441a3.938,3.938,0,0,1,.407-.082l2.976-.441a3.94,3.94,0,0,0-.406.082" fill="#23397a"/>
              </g>
            </g>
          </g>
          <g id="Group_974" data-name="Group 974">
            <path id="Path_1057" data-name="Path 1057" d="M3596.914,1714.073l-2.977.441,2.44-.617,2.977-.441Z" fill="#223879"/>
          </g>
          <g id="Group_975" data-name="Group 975">
            <path id="Path_1058" data-name="Path 1058" d="M3591.987,1715.319l-2.977.441,4.927-1.246,2.977-.441Z" fill="#223879"/>
          </g>
          <g id="Group_976" data-name="Group 976">
            <path id="Path_1059" data-name="Path 1059" d="M3591.987,1715.319l-2.977.441-1.26-5.483,2.977-.441Z" fill="#203571"/>
          </g>
          <g id="Group_977" data-name="Group 977">
            <path id="Path_1060" data-name="Path 1060" d="M3592.3,1736.063l-2.977.441-2.1-6.03,2.977-.441Z" fill="#203571"/>
          </g>
          <g id="Group_980" data-name="Group 980" style="isolation: isolate">
            <g id="Group_979" data-name="Group 979" clip-path="url(#clip-path-2)">
              <g id="Group_978" data-name="Group 978" style="isolation: isolate">
                <path id="Path_1061" data-name="Path 1061" d="M3590.2,1730.033l-2.977.441a2.624,2.624,0,0,0,.275-1.879,2.44,2.44,0,0,0-2.709-1.919l2.977-.442a2.442,2.442,0,0,1,2.709,1.92,2.624,2.624,0,0,1-.275,1.879" fill="#213776"/>
              </g>
            </g>
          </g>
          <g id="Group_983" data-name="Group 983" style="isolation: isolate">
            <g id="Group_982" data-name="Group 982" clip-path="url(#clip-path-3)">
              <g id="Group_981" data-name="Group 981" style="isolation: isolate">
                <path id="Path_1063" data-name="Path 1063" d="M3590.728,1709.836l-2.977.441a6.789,6.789,0,0,0-7.526-5.336l2.976-.441a6.789,6.789,0,0,1,7.527,5.336" fill="#213776"/>
              </g>
            </g>
          </g>
          <g id="Group_984" data-name="Group 984">
            <path id="Path_1065" data-name="Path 1065" d="M3587.557,1737.261l-2.977.441,4.742-1.2,2.977-.441Z" fill="#223879"/>
          </g>
          <g id="Group_985" data-name="Group 985">
            <path id="Path_1066" data-name="Path 1066" d="M3578.8,1718.655l-2.977.441,13.187-3.336,2.977-.441Z" fill="#223879"/>
          </g>
          <g id="Group_986" data-name="Group 986">
            <path id="Path_1067" data-name="Path 1067" d="M3573.875,1719.9l-2.977.441,4.925-1.246,2.977-.441Z" fill="#223879"/>
          </g>
          <g id="Group_987" data-name="Group 987">
            <path id="Path_1068" data-name="Path 1068" d="M3573.875,1719.9l-2.977.441-1.26-5.482,2.977-.441Z" fill="#203571"/>
          </g>
          <g id="Group_988" data-name="Group 988">
            <path id="Path_1069" data-name="Path 1069" d="M3582.5,1699.274a11.854,11.854,0,0,1,13.149,9.31l1.262,5.489-4.927,1.246-1.259-5.483a6.789,6.789,0,0,0-7.527-5.336q-.324.048-.651.131a7.112,7.112,0,0,0-5.011,8.536l1.261,5.488-4.925,1.246-1.26-5.482a12.427,12.427,0,0,1,8.755-14.917A11.4,11.4,0,0,1,3582.5,1699.274Z" fill="#3c62d3"/>
          </g>
          <g id="Group_991" data-name="Group 991" style="isolation: isolate">
            <g id="Group_990" data-name="Group 990" clip-path="url(#clip-path-4)">
              <g id="Group_989" data-name="Group 989" style="isolation: isolate">
                <path id="Path_1070" data-name="Path 1070" d="M3572.615,1714.419l-2.977.441a12.6,12.6,0,0,1,5.888-13.77l2.977-.441a12.6,12.6,0,0,0-5.888,13.77" fill="#213776"/>
                <path id="Path_1071" data-name="Path 1071" d="M3578.5,1700.649l-2.977.441a11.558,11.558,0,0,1,2.867-1.147,11.437,11.437,0,0,1,1.133-.228l2.977-.441a11.4,11.4,0,0,0-1.133.228,11.555,11.555,0,0,0-2.867,1.147" fill="#23397a"/>
              </g>
            </g>
          </g>
          <g id="Group_992" data-name="Group 992">
            <path id="Path_1073" data-name="Path 1073" d="M3571.432,1720.519l-2.977.441,2.443-.618,2.977-.441Z" fill="#223879"/>
          </g>
          <g id="Group_995" data-name="Group 995" style="isolation: isolate">
            <g id="Group_994" data-name="Group 994" clip-path="url(#clip-path-5)">
              <g id="Group_993" data-name="Group 993" style="isolation: isolate">
                <path id="Path_1074" data-name="Path 1074" d="M3577.494,1748.654l-2.976.441a4.276,4.276,0,0,1-4.75-3.353l2.977-.441a4.276,4.276,0,0,0,4.749,3.353" fill="#213776"/>
              </g>
            </g>
          </g>
          <g id="Group_996" data-name="Group 996">
            <path id="Path_1076" data-name="Path 1076" d="M3572.745,1745.3l-2.977.441-4.469-19.407,2.977-.441Z" fill="#203571"/>
          </g>
          <g id="Group_997" data-name="Group 997">
            <path id="Path_1077" data-name="Path 1077" d="M3608.979,1736.135a4.481,4.481,0,0,1-3.156,5.374l-27.922,7.064c-.136.034-.271.061-.407.081a4.276,4.276,0,0,1-4.749-3.353l-4.47-19.407a4.482,4.482,0,0,1,3.157-5.375l2.443-.618,4.925-1.246,13.187-3.336,4.927-1.246,2.44-.617a3.94,3.94,0,0,1,.406-.082,4.279,4.279,0,0,1,4.751,3.362Zm-21.422,1.126,4.742-1.2-2.095-6.03a2.624,2.624,0,0,0,.275-1.879,2.442,2.442,0,0,0-2.709-1.92c-.078.012-.156.028-.234.047a2.553,2.553,0,0,0-1.8,3.071,2.486,2.486,0,0,0,1.063,1.543l.757,6.366" fill="#3c62d3"/>
          </g>
          <g id="Group_1000" data-name="Group 1000" style="isolation: isolate">
            <g id="Group_999" data-name="Group 999" clip-path="url(#clip-path-6)">
              <g id="Group_998" data-name="Group 998" style="isolation: isolate">
                <path id="Path_1078" data-name="Path 1078" d="M3568.275,1725.894l-2.976.441a4.543,4.543,0,0,1,2.124-4.962l2.977-.441a4.545,4.545,0,0,0-2.125,4.962" fill="#213776"/>
                <path id="Path_1079" data-name="Path 1079" d="M3570.4,1720.932l-2.977.441a4.158,4.158,0,0,1,1.032-.413l2.977-.441a4.15,4.15,0,0,0-1.032.413" fill="#23397a"/>
              </g>
            </g>
          </g>
        </g>
      </g>
    </g>
  </g>
</svg>
