<svg xmlns="http://www.w3.org/2000/svg" width="115.817" height="120.439" viewBox="0 0 115.817 120.439">
  <g id="Group_1200" data-name="Group 1200" transform="translate(-1833.081 -1851.142)">
    <g id="Group_1199" data-name="Group 1199">
      <g id="Group_1198" data-name="Group 1198">
        <g id="Group_1195" data-name="Group 1195">
          <path id="Path_1170" data-name="Path 1170" d="M1938.8,1909.917a4.3,4.3,0,0,1-.534,2.183,3.717,3.717,0,0,1-.668.848,5.993,5.993,0,0,1-2.671,1.089,11.541,11.541,0,0,1-3.018-.06c-.54-.054-.8-.079-.952-.093l-.217-.021c-.9-.084-24.485-6.335-41.42-6.707a58.237,58.237,0,0,0-8.161.33,49.981,49.981,0,0,0-16.038,4.644,46.218,46.218,0,0,0-10.96,7.63c-10.838-6.932-18.811-12.033-18.858-12.073l-.127-.1c-.007-.013-.013-.013-.013-.013a5.918,5.918,0,0,1-2.031-3.659,5.426,5.426,0,0,1,3.306-5.8h.007c.9-.193,1.8-.387,2.711-.574l39.784-7.05a11.787,11.787,0,0,0,7.9-5.911,11.451,11.451,0,0,0-.886-11.639l50.744,33.695A4.477,4.477,0,0,1,1938.8,1909.917Z" fill="#fff"/>
        </g>
        <g id="Group_1196" data-name="Group 1196">
          <path id="Path_1171" data-name="Path 1171" d="M1945.611,1971.576a3.258,3.258,0,0,1-1.122-.271l-34.277-19.88-24.879-14.944-24.622-14.79a33.536,33.536,0,0,1,2.361-2.551,34.457,34.457,0,0,1,9.905-6.719,32.945,32.945,0,0,1,19.942-2.492,29.894,29.894,0,0,1,4.966,1.477c28.505,31.079,49.4,53.919,50.033,54.665a4.261,4.261,0,0,1,.937,1.9,3.224,3.224,0,0,1-.724,2.643A3.19,3.19,0,0,1,1945.611,1971.576Z" fill="#fff"/>
        </g>
        <g id="Group_1197" data-name="Group 1197">
          <path id="Path_1172" data-name="Path 1172" d="M1843.807,1856.538a4.073,4.073,0,0,1-.817-2.371c0-.095,0-.187.01-.277,0,0,0-.058.01-.114a3.952,3.952,0,0,1,.9-1.882,3.305,3.305,0,0,1,3.5-.466l34.31,20.083c3.381,3.7,4.005,8.9,1.759,12.543a10.178,10.178,0,0,1-7.356,4.593,9.47,9.47,0,0,1-2.832-.114Z" fill="#fff"/>
        </g>
      </g>
    </g>
  </g>
</svg>
