<svg xmlns="http://www.w3.org/2000/svg" width="12.12" height="21.689" viewBox="0 0 12.12 21.689">
    <path id="Path_1211" data-name="Path 1211" d="M-200.135,219.656l-9.569-9.569a1.266,1.266,0,0,0-.9-.374,1.266,1.266,0,0,0-.9.374,1.266,1.266,0,0,0-.374.9,1.266,1.266,0,0,0,.374.9l8.667,8.667-8.667,8.667a1.266,1.266,0,0,0-.374.9,1.264,1.264,0,0,0,.374.9,1.266,1.266,0,0,0,.9.374,1.266,1.266,0,0,0,.9-.374l9.569-9.569a1.267,1.267,0,0,0,.374-.9A1.266,1.266,0,0,0-200.135,219.656Z" transform="translate(211.882 -209.713)" fill="#fff"/>
</svg>
