<svg xmlns="http://www.w3.org/2000/svg" width="184.658" height="147.943" viewBox="0 0 184.658 147.943">
  <g id="Group_1225" data-name="Group 1225" transform="translate(-2247.511 -1783.458)">
    <g id="Group_1176" data-name="Group 1176">
      <g id="Group_1175" data-name="Group 1175">
        <g id="Group_1172" data-name="Group 1172">
          <path id="Path_1154" data-name="Path 1154" d="M2369.244,1819.6a2.649,2.649,0,0,1-.328,1.343,2.287,2.287,0,0,1-.411.521,3.678,3.678,0,0,1-1.643.67,7.065,7.065,0,0,1-1.856-.037c-.332-.033-.493-.049-.585-.057l-.134-.013c-.555-.052-15.059-3.9-25.474-4.125a35.677,35.677,0,0,0-5.019.2,30.743,30.743,0,0,0-9.863,2.856,28.42,28.42,0,0,0-6.742,4.693c-6.665-4.263-11.569-7.4-11.6-7.426l-.078-.061c0-.009-.009-.009-.009-.009a3.632,3.632,0,0,1-1.248-2.25,3.4,3.4,0,0,1,.452-2.214,3.433,3.433,0,0,1,1.581-1.351h0c.554-.119,1.109-.238,1.667-.353l24.468-4.336a7.248,7.248,0,0,0,4.858-3.635,7.041,7.041,0,0,0-.545-7.159l31.209,20.723A2.754,2.754,0,0,1,2369.244,1819.6Z" fill="#c9c9c9"/>
        </g>
        <g id="Group_1173" data-name="Group 1173">
          <path id="Path_1155" data-name="Path 1155" d="M2373.433,1857.526a2,2,0,0,1-.69-.166l-21.08-12.227q-7.652-4.595-15.3-9.191l-15.143-9.1a20.634,20.634,0,0,1,1.452-1.569,21.184,21.184,0,0,1,6.092-4.132,20.258,20.258,0,0,1,12.264-1.533,18.4,18.4,0,0,1,3.054.909c17.531,19.114,30.382,33.161,30.771,33.62a2.613,2.613,0,0,1,.577,1.166,1.989,1.989,0,0,1-.445,1.626A1.962,1.962,0,0,1,2373.433,1857.526Z" fill="#c9c9c9"/>
        </g>
        <g id="Group_1174" data-name="Group 1174">
          <path id="Path_1156" data-name="Path 1156" d="M2310.823,1786.776a2.507,2.507,0,0,1-.5-1.458c0-.059,0-.115.006-.171,0,0,0-.035.006-.07a2.435,2.435,0,0,1,.556-1.157,2.033,2.033,0,0,1,2.152-.287l21.1,12.352a6.54,6.54,0,0,1,1.081,7.714,6.26,6.26,0,0,1-4.524,2.825,5.866,5.866,0,0,1-1.742-.07Q2319.891,1796.614,2310.823,1786.776Z" fill="#c9c9c9"/>
        </g>
      </g>
    </g>
    <g id="Group_1178" data-name="Group 1178">
      <g id="Group_1177" data-name="Group 1177">
        <path id="Path_1157" data-name="Path 1157" d="M2255.086,1863.872h38.123l-26.793,55.777h21.218l-1.561,11.752h-38.562l26.827-55.639h-20.9Z" fill="#0b31b7"/>
        <path id="Path_1158" data-name="Path 1158" d="M2301.547,1863.872h36.313l-1.556,11.982h-23.563l-1.936,13.955h23.687l-1.543,11.89h-23.793l-2.485,17.9h23.679l-1.532,11.8h-36.5Z" fill="#0b31b7"/>
        <path id="Path_1159" data-name="Path 1159" d="M2344.1,1864h12.3l-5.5,40.587a65.463,65.463,0,0,0-.715,7.509,7.4,7.4,0,0,0,2.3,5.788q2.3,2.079,6.686,2.078a11.877,11.877,0,0,0,6.172-1.564,8.029,8.029,0,0,0,3.153-3.867q1.185-2.7,2.3-10.749l5.435-39.782h12.439l-5.317,39.247q-1.655,12.112-4.336,17.387a18.36,18.36,0,0,1-7.757,8.023,25.651,25.651,0,0,1-12.361,2.748q-9.835,0-15.334-5.23t-5.5-14.3a91.615,91.615,0,0,1,1.073-11.621Z" fill="#0b31b7"/>
        <path id="Path_1160" data-name="Path 1160" d="M2432.169,1874.673l-9.048,7.37c-3.6-4.643-6.654-6.586-9.759-6.586a5.509,5.509,0,0,0-3.831,1.371,4.269,4.269,0,0,0-1.524,3.287,7.519,7.519,0,0,0,1.393,3.962q1.392,2.178,8.446,9.622a64.284,64.284,0,0,1,4.92,5.616,29.9,29.9,0,0,1,4.07,7.161,19.264,19.264,0,0,1,1.241,6.771,17.141,17.141,0,0,1-5.486,12.93q-5.485,5.225-14.062,5.224-13.061,0-21.289-12.408l9.23-7.445q5.571,8.49,12.059,8.49a7.27,7.27,0,0,0,5.2-2,6.418,6.418,0,0,0,2.111-4.832,9.277,9.277,0,0,0-1.284-4.528q-1.284-2.307-7.336-8.707-6.4-6.749-8.4-10.188a18.17,18.17,0,0,1-2.7-9.142,16.256,16.256,0,0,1,3.875-10.623q4.875-5.879,13.148-5.878Q2424.506,1864.137,2432.169,1874.673Z" fill="#0b31b7"/>
      </g>
    </g>
  </g>
</svg>
