<svg xmlns="http://www.w3.org/2000/svg" width="38.53" height="49.245" viewBox="0 0 38.53 49.245">
  <g id="Group_419" data-name="Group 419" transform="translate(-1931.803 -3350.88)">
    <path id="Path_407" data-name="Path 407" d="M1967.794,3397.554c-.017.015-.032.03-.047.045a8.636,8.636,0,0,1-12.2,0l-12.446-12.446a8.623,8.623,0,0,1,11.243-13.021,1.016,1.016,0,0,1,.214,1.337.99.99,0,0,1-1.337.214,6.684,6.684,0,0,0-8.636,9.986l12.446,12.446a6.617,6.617,0,0,0,9.453-9.262l-.095-.1-3.9-3.917a1,1,0,0,1,1.417-1.417l3.917,3.917A8.638,8.638,0,0,1,1967.794,3397.554Z" fill="#fff"/>
    <path id="Path_408" data-name="Path 408" d="M1959.18,3378.2a8.621,8.621,0,0,1-11.231.867,1.015,1.015,0,0,1-.214-1.336,1,1,0,0,1,1.4-.216v0a6.685,6.685,0,0,0,8.583-10.027l-12.433-12.446a6.617,6.617,0,1,0-9.453,9.263l4.106,4.106a.991.991,0,0,1-1.484,1.31l-4.011-4.011a8.623,8.623,0,1,1,11.959-12.426c.08.077.157.154.233.234l12.5,12.486A8.623,8.623,0,0,1,1959.18,3378.2Z" fill="#fff"/>
  </g>
</svg>
