<svg xmlns="http://www.w3.org/2000/svg" width="312.601" height="226.476" viewBox="0 0 312.601 226.476">
  <g id="Group_1062" data-name="Group 1062" transform="translate(-3001.249 -1699.412)">
    <g id="Group_1017" data-name="Group 1017">
      <g id="Group_1015" data-name="Group 1015">
        <rect id="Rectangle_451" data-name="Rectangle 451" width="109.957" height="54.23" transform="matrix(0.815, -0.58, 0.58, 0.815, 3066.534, 1793.677)" fill="#343f67"/>
        <rect id="Rectangle_452" data-name="Rectangle 452" width="109.957" height="54.23" transform="matrix(0.815, -0.58, 0.58, 0.815, 3065.908, 1794.123)" fill="#304faa"/>
        <rect id="Rectangle_453" data-name="Rectangle 453" width="46.02" height="101.746" rx="1.267" transform="matrix(0.58, 0.815, -0.815, 0.58, 3154.515, 1736.069)" fill="#203571"/>
        <path id="Path_1090" data-name="Path 1090" d="M3165.309,1777.934l-57.645,41.046a8.242,8.242,0,0,0-11.494-1.933L3085.6,1802.2a8.241,8.241,0,0,0,1.933-11.494l57.645-41.046a8.243,8.243,0,0,0,11.494,1.933l10.57,14.845A8.242,8.242,0,0,0,3165.309,1777.934Z" fill="#304faa"/>
        <path id="Path_1091" data-name="Path 1091" d="M3113.982,1793.178a15.27,15.27,0,1,1,21.3,3.582A15.27,15.27,0,0,1,3113.982,1793.178Z" fill="#6687e8"/>
      </g>
      <g id="Group_1016" data-name="Group 1016">
        <rect id="Rectangle_454" data-name="Rectangle 454" width="109.957" height="54.23" transform="translate(3066.408 1763.191) rotate(-35.453)" fill="#343f67"/>
        <rect id="Rectangle_455" data-name="Rectangle 455" width="109.957" height="54.23" transform="matrix(0.815, -0.58, 0.58, 0.815, 3065.782, 1763.636)" fill="#304faa"/>
        <rect id="Rectangle_456" data-name="Rectangle 456" width="46.02" height="101.746" rx="1.267" transform="matrix(0.58, 0.815, -0.815, 0.58, 3154.389, 1705.583)" fill="#203571"/>
        <path id="Path_1092" data-name="Path 1092" d="M3165.183,1747.448l-57.644,41.046a8.242,8.242,0,0,0-11.494-1.933l-10.571-14.846a8.242,8.242,0,0,0,1.933-11.494l57.645-41.046a8.24,8.24,0,0,0,11.494,1.933l10.571,14.846A8.242,8.242,0,0,0,3165.183,1747.448Z" fill="#304faa"/>
        <circle id="Ellipse_7" data-name="Ellipse 7" cx="15.27" cy="15.27" r="15.27" transform="matrix(0.679, -0.734, 0.734, 0.679, 3104.716, 1754.665)" fill="#6687e8"/>
      </g>
    </g>
    <g id="Group_1034" data-name="Group 1034">
      <g id="Group_1025" data-name="Group 1025">
        <g id="Group_1023" data-name="Group 1023">
          <g id="Group_1018" data-name="Group 1018">
            <path id="Rectangle_457" data-name="Rectangle 457" d="M7.317,0H140.71a7.317,7.317,0,0,1,7.317,7.317V70.57a7.318,7.318,0,0,1-7.318,7.318H7.318A7.318,7.318,0,0,1,0,70.57V7.317A7.317,7.317,0,0,1,7.317,0Z" transform="translate(3006.7 1844.847) rotate(-63.182)" fill="#304faa"/>
          </g>
          <g id="Group_1019" data-name="Group 1019">
            <rect id="Rectangle_458" data-name="Rectangle 458" width="148.028" height="77.887" rx="7.318" transform="translate(3001.249 1842.091) rotate(-63.182)" fill="#343f67"/>
          </g>
          <g id="Group_1020" data-name="Group 1020">
            <path id="Path_1093" data-name="Path 1093" d="M3130.57,1742.7l-56.449-28.537a6.345,6.345,0,0,0-8.516,2.8l-36.376,71.955c28.611-10.369,60.061-13.976,89.549-8.841l14.589-28.858A6.345,6.345,0,0,0,3130.57,1742.7Z" fill="#3e4b75"/>
          </g>
          <g id="Group_1021" data-name="Group 1021">
            <path id="Path_1094" data-name="Path 1094" d="M3009.1,1842.769a4.384,4.384,0,0,1-1.932-5.883l60.182-119.045a4.383,4.383,0,0,1,5.882-1.932l56.449,28.537a4.383,4.383,0,0,1,1.932,5.882l-60.182,119.046a4.383,4.383,0,0,1-5.882,1.932Z" fill="#fdfffc"/>
          </g>
          <g id="Group_1022" data-name="Group 1022">
            <path id="Path_1095" data-name="Path 1095" d="M3110.826,1740.267l-23.042-11.648a3,3,0,0,1-1.322-4.026l.991-1.961,28.39,14.353-.991,1.96A3,3,0,0,1,3110.826,1740.267Z" fill="#343f67"/>
          </g>
        </g>
        <g id="Group_1024" data-name="Group 1024">
          <path id="Path_1096" data-name="Path 1096" d="M3125.975,1774.936l-.4-.2-7.217,14.275.4.2a1.268,1.268,0,0,0,1.7-.559l6.072-12.013A1.267,1.267,0,0,0,3125.975,1774.936Z" fill="#343f67"/>
        </g>
      </g>
      <g id="Group_1033" data-name="Group 1033">
        <g id="Group_1031" data-name="Group 1031">
          <g id="Group_1026" data-name="Group 1026">
            <path id="Rectangle_459" data-name="Rectangle 459" d="M7.317,0H70.57a7.317,7.317,0,0,1,7.317,7.317V140.71a7.318,7.318,0,0,1-7.318,7.318H7.318A7.318,7.318,0,0,1,0,140.71V7.317A7.317,7.317,0,0,1,7.317,0Z" transform="matrix(0.955, -0.298, 0.298, 0.955, 3195.417, 1782.757)" fill="#304faa"/>
          </g>
          <g id="Group_1027" data-name="Group 1027">
            <rect id="Rectangle_460" data-name="Rectangle 460" width="77.887" height="148.028" rx="7.318" transform="matrix(0.955, -0.298, 0.298, 0.955, 3189.585, 1784.576)" fill="#343f67"/>
          </g>
          <g id="Group_1028" data-name="Group 1028">
            <path id="Path_1097" data-name="Path 1097" d="M3257.245,1764.5l-60.383,18.835a6.345,6.345,0,0,0-4.163,7.938l24.009,76.97c13.309-27.367,33.367-51.859,58.1-68.71l-9.629-30.87A6.346,6.346,0,0,0,3257.245,1764.5Z" fill="#3e4b75"/>
          </g>
          <g id="Group_1029" data-name="Group 1029">
            <path id="Rectangle_461" data-name="Rectangle 461" d="M4.378,0H137.771a4.378,4.378,0,0,1,4.378,4.378V67.631a4.378,4.378,0,0,1-4.378,4.378H4.379A4.379,4.379,0,0,1,0,67.63V4.378A4.378,4.378,0,0,1,4.378,0Z" transform="translate(3262.009 1765.064) rotate(72.676)" fill="#fdfffc"/>
          </g>
          <g id="Group_1030" data-name="Group 1030">
            <path id="Path_1098" data-name="Path 1098" d="M3241.384,1776.5l-24.647,7.689a3,3,0,0,1-3.753-1.969l-.654-2.1,30.369-9.473.654,2.1A3,3,0,0,1,3241.384,1776.5Z" fill="#343f67"/>
          </g>
        </g>
        <g id="Group_1032" data-name="Group 1032">
          <path id="Path_1099" data-name="Path 1099" d="M3276.4,1790.833l-.426.132,4.763,15.27.426-.133a1.267,1.267,0,0,0,.832-1.587l-4.008-12.85A1.266,1.266,0,0,0,3276.4,1790.833Z" fill="#343f67"/>
        </g>
      </g>
    </g>
    <g id="Group_1056" data-name="Group 1056">
      <g id="Group_1053" data-name="Group 1053">
        <g id="Group_1035" data-name="Group 1035">
          <path id="Path_1100" data-name="Path 1100" d="M3251.863,1797.27h-47.445a21.35,21.35,0,0,0-21.35,21.35v87.095h31.856a21.35,21.35,0,0,0,21.35-21.35v-65.576a21.522,21.522,0,0,1,15.589-20.682Z" fill="#e6efff"/>
        </g>
        <g id="Group_1042" data-name="Group 1042">
          <g id="Group_1036" data-name="Group 1036">
            <rect id="Rectangle_462" data-name="Rectangle 462" width="34.233" height="1.455" transform="translate(3191.743 1826.275)" fill="#cbd9f4"/>
          </g>
          <g id="Group_1037" data-name="Group 1037">
            <rect id="Rectangle_463" data-name="Rectangle 463" width="34.233" height="1.455" transform="translate(3191.743 1832.215)" fill="#cbd9f4"/>
          </g>
          <g id="Group_1038" data-name="Group 1038">
            <rect id="Rectangle_464" data-name="Rectangle 464" width="34.233" height="1.455" transform="translate(3191.743 1838.155)" fill="#cbd9f4"/>
          </g>
          <g id="Group_1039" data-name="Group 1039">
            <rect id="Rectangle_465" data-name="Rectangle 465" width="34.233" height="1.455" transform="translate(3191.743 1844.095)" fill="#cbd9f4"/>
          </g>
          <g id="Group_1040" data-name="Group 1040">
            <rect id="Rectangle_466" data-name="Rectangle 466" width="34.233" height="1.455" transform="translate(3191.743 1850.035)" fill="#cbd9f4"/>
          </g>
          <g id="Group_1041" data-name="Group 1041">
            <rect id="Rectangle_467" data-name="Rectangle 467" width="34.233" height="1.455" transform="translate(3191.743 1855.975)" fill="#cbd9f4"/>
          </g>
        </g>
        <g id="Group_1043" data-name="Group 1043">
          <path id="Path_1101" data-name="Path 1101" d="M3214.923,1906.195h-30.464c-27.241,0-29.435-25.05-29.454-25.3v-32.7h.96v32.66c.075.96,2.156,24.378,28.495,24.378h30.464a20.893,20.893,0,0,0,20.87-20.87V1818.79a22.09,22.09,0,0,1,15.589-21.042v-.478h.96v1.2l-.347.1a21.124,21.124,0,0,0-15.241,20.222v65.575A21.856,21.856,0,0,1,3214.923,1906.195Z" fill="#aebcf1"/>
        </g>
        <g id="Group_1044" data-name="Group 1044">
          <path id="Path_1102" data-name="Path 1102" d="M3208.859,1906.195c-7,0-7.029-11.449-7.065-24.7-.042-15.381-.091-32.813-11.912-32.813v-.96c12.778,0,12.828,17.941,12.872,33.77.034,12.212.067,23.748,6.1,23.748Z" fill="#aebcf1"/>
        </g>
        <path id="Path_1103" data-name="Path 1103" d="M3189.882,1848.2h-34.4v32.659s1.864,24.859,28.975,24.859h24.4C3194.287,1905.715,3212.135,1848.2,3189.882,1848.2Z" fill="#6687e8"/>
        <g id="Group_1045" data-name="Group 1045">
          <path id="Path_1104" data-name="Path 1104" d="M3189.882,1848.2h-47.445a21.35,21.35,0,0,0-21.35,21.35v48.688h31.855a21.351,21.351,0,0,0,21.351-21.35v-27.168c0-9.827,2.2-21.52,15.589-21.52Z" fill="#cbd9f4"/>
        </g>
        <g id="Group_1052" data-name="Group 1052">
          <g id="Group_1046" data-name="Group 1046">
            <rect id="Rectangle_468" data-name="Rectangle 468" width="34.233" height="1.455" transform="translate(3131.195 1866.378)" fill="#aebcf1"/>
          </g>
          <g id="Group_1047" data-name="Group 1047">
            <rect id="Rectangle_469" data-name="Rectangle 469" width="34.233" height="1.455" transform="translate(3131.195 1872.318)" fill="#aebcf1"/>
          </g>
          <g id="Group_1048" data-name="Group 1048">
            <rect id="Rectangle_470" data-name="Rectangle 470" width="34.233" height="1.455" transform="translate(3131.195 1878.258)" fill="#aebcf1"/>
          </g>
          <g id="Group_1049" data-name="Group 1049">
            <rect id="Rectangle_471" data-name="Rectangle 471" width="34.233" height="1.455" transform="translate(3131.195 1884.198)" fill="#aebcf1"/>
          </g>
          <g id="Group_1050" data-name="Group 1050">
            <rect id="Rectangle_472" data-name="Rectangle 472" width="34.233" height="1.455" transform="translate(3131.195 1890.138)" fill="#aebcf1"/>
          </g>
          <g id="Group_1051" data-name="Group 1051">
            <rect id="Rectangle_473" data-name="Rectangle 473" width="34.233" height="1.455" transform="translate(3131.195 1896.078)" fill="#aebcf1"/>
          </g>
        </g>
      </g>
      <g id="Group_1054" data-name="Group 1054">
        <path id="Path_1105" data-name="Path 1105" d="M3152.942,1918.715h-31.855v-.96h31.855a20.893,20.893,0,0,0,20.87-20.87v-27.168c0-14.8,5.257-22,16.07-22v.96c-10.167,0-15.109,6.882-15.109,21.04v27.168A21.855,21.855,0,0,1,3152.942,1918.715Z" fill="#aebcf1"/>
      </g>
      <g id="Group_1055" data-name="Group 1055">
        <path id="Path_1106" data-name="Path 1106" d="M3208.859,1906.195c-7,0-7.029-11.449-7.065-24.7-.042-15.381-.091-32.813-11.912-32.813v-.96c12.778,0,12.828,17.941,12.872,33.77.034,12.212.067,23.748,6.1,23.748Z" fill="#aebcf1"/>
      </g>
    </g>
    <g id="Group_1061" data-name="Group 1061">
      <g id="Group_1058" data-name="Group 1058">
        <path id="Path_1107" data-name="Path 1107" d="M3103.154,1867.635a17.442,17.442,0,0,0,23.767-5.65c5.2-8.277,2.222-19.414-6.151-24.461l-2.019-1.217a2.3,2.3,0,0,0-3.157.783l-15.626,25.924a2.3,2.3,0,0,0,.774,3.152Z" fill="#203571"/>
        <path id="Path_1108" data-name="Path 1108" d="M3124.481,1860.125a17.441,17.441,0,1,1-5.934-23.941A17.441,17.441,0,0,1,3124.481,1860.125Z" fill="#3852a5"/>
        <circle id="Ellipse_8" data-name="Ellipse 8" cx="13.098" cy="13.098" r="13.098" transform="translate(3091.063 1849.853) rotate(-41.073)" fill="#4069e2"/>
        <g id="Group_1057" data-name="Group 1057">
          <path id="Path_1109" data-name="Path 1109" d="M3103.915,1859.985l1.048-1.738a4.182,4.182,0,0,1-2.01-2.8,6.287,6.287,0,0,1,1.031-3.915l2.93,1.215a7.893,7.893,0,0,0-.731,1.571,1.853,1.853,0,0,0-.074,1.057,1.107,1.107,0,0,0,.511.643.731.731,0,0,0,.841.052,1.969,1.969,0,0,0,.573-.612,3.011,3.011,0,0,0,.482-1.733,7.458,7.458,0,0,0-.4-1.9l-.6-1.822a12.419,12.419,0,0,1-.37-1.551,4.8,4.8,0,0,1,.005-1.577,4.916,4.916,0,0,1,.684-1.731,4.1,4.1,0,0,1,2.534-2.039,4.6,4.6,0,0,1,3.218.479l1-1.668.9.54-.995,1.651a3.721,3.721,0,0,1,1.353,1.449,3.155,3.155,0,0,1,.308,1.574,5.3,5.3,0,0,1-.351,1.536,10.724,10.724,0,0,1-.626,1.335l-2.923-1.307a12.445,12.445,0,0,0,.588-1.154,1.873,1.873,0,0,0,.194-.877.747.747,0,0,0-.446-.591.813.813,0,0,0-.871-.023,1.71,1.71,0,0,0-.656.61,2.4,2.4,0,0,0-.39,1.62,10.61,10.61,0,0,0,.353,1.541l.569,1.755a12.619,12.619,0,0,1,.4,1.821,5.994,5.994,0,0,1-.026,1.851,5.494,5.494,0,0,1-.749,1.918,4.391,4.391,0,0,1-1.413,1.471,3.756,3.756,0,0,1-1.863.589,4.381,4.381,0,0,1-2.075-.448l-1.058,1.755Z" fill="#a3b7f1"/>
        </g>
      </g>
      <g id="Group_1060" data-name="Group 1060">
        <path id="Path_1110" data-name="Path 1110" d="M3093.672,1846.625a17.44,17.44,0,0,0,23.766-5.65c5.2-8.276,2.222-19.414-6.15-24.46l-2.019-1.217a2.3,2.3,0,0,0-3.158.782L3090.485,1842a2.3,2.3,0,0,0,.774,3.152Z" fill="#203571"/>
        <path id="Path_1111" data-name="Path 1111" d="M3115,1839.116a17.441,17.441,0,1,1-5.933-23.941A17.44,17.44,0,0,1,3115,1839.116Z" fill="#3852a5"/>
        <path id="Path_1112" data-name="Path 1112" d="M3111.279,1836.874a13.1,13.1,0,1,1-4.456-17.98A13.1,13.1,0,0,1,3111.279,1836.874Z" fill="#4069e2"/>
        <g id="Group_1059" data-name="Group 1059">
          <path id="Path_1113" data-name="Path 1113" d="M3094.432,1838.976l1.048-1.739a4.177,4.177,0,0,1-2.01-2.8,6.289,6.289,0,0,1,1.031-3.915l2.93,1.216a7.833,7.833,0,0,0-.73,1.57,1.833,1.833,0,0,0-.074,1.057,1.105,1.105,0,0,0,.51.643.732.732,0,0,0,.841.052,1.975,1.975,0,0,0,.574-.612,3.009,3.009,0,0,0,.481-1.733,7.4,7.4,0,0,0-.4-1.9l-.6-1.822a12.661,12.661,0,0,1-.37-1.552,4.772,4.772,0,0,1,.006-1.576,4.934,4.934,0,0,1,.683-1.732,4.1,4.1,0,0,1,2.534-2.039,4.607,4.607,0,0,1,3.218.479l1.005-1.667.9.54-1,1.65a3.724,3.724,0,0,1,1.353,1.45,3.147,3.147,0,0,1,.308,1.574,5.274,5.274,0,0,1-.351,1.536,11,11,0,0,1-.625,1.335l-2.924-1.307q.365-.643.589-1.154a1.858,1.858,0,0,0,.193-.877.744.744,0,0,0-.446-.592.812.812,0,0,0-.871-.022,1.709,1.709,0,0,0-.656.61,2.4,2.4,0,0,0-.39,1.619,10.684,10.684,0,0,0,.353,1.542l.569,1.755a12.42,12.42,0,0,1,.4,1.82,5.993,5.993,0,0,1-.027,1.852,5.476,5.476,0,0,1-.749,1.918,4.382,4.382,0,0,1-1.413,1.471,3.748,3.748,0,0,1-1.862.588,4.373,4.373,0,0,1-2.076-.448l-1.058,1.756Z" fill="#a3b7f1"/>
        </g>
      </g>
    </g>
    <path id="Path_1114" data-name="Path 1114" d="M3179.227,1839.347l29.243,11.187,11.187-29.242c-.214-.1-4.317,1.6-9.832,4a54.166,54.166,0,0,0-84.5-6.57,54.166,54.166,0,0,1,64.21,15.641C3183.789,1837,3179.461,1839.061,3179.227,1839.347Z" fill="#4069e2"/>
  </g>
</svg>
