<svg xmlns="http://www.w3.org/2000/svg" width="257.134" height="221.303" viewBox="0 0 257.134 221.303">
  <g id="Group_1156" data-name="Group 1156" transform="translate(-2620.34 -1726.483)">
    <g id="Group_1082" data-name="Group 1082">
      <g id="Group_1078" data-name="Group 1078">
        <rect id="Rectangle_485" data-name="Rectangle 485" width="14.155" height="84.249" transform="translate(2620.34 1829.663)" fill="#4069e2"/>
      </g>
      <g id="Group_1079" data-name="Group 1079">
        <rect id="Rectangle_486" data-name="Rectangle 486" width="14.155" height="105.248" transform="translate(2645.031 1808.663)" fill="#4069e2"/>
      </g>
      <g id="Group_1080" data-name="Group 1080">
        <rect id="Rectangle_487" data-name="Rectangle 487" width="14.155" height="99.861" transform="translate(2669.723 1814.05)" fill="#4069e2"/>
      </g>
      <g id="Group_1081" data-name="Group 1081">
        <rect id="Rectangle_488" data-name="Rectangle 488" width="14.155" height="120.076" transform="translate(2694.415 1793.835)" fill="#4069e2"/>
      </g>
      <path id="Path_1124" data-name="Path 1124" d="M2622.892,1819.744l29.217-23.03,24.616,8.337,25.915-28.824" fill="none" stroke="#3852a5" stroke-linecap="round" stroke-linejoin="round" stroke-width="2.999"/>
      <path id="Path_1125" data-name="Path 1125" d="M2705.2,1772.775l-7.419,3.015,6.038,4.873Z" fill="#3852a5"/>
    </g>
    <g id="Group_1109" data-name="Group 1109">
      <g id="Group_1083" data-name="Group 1083">
        <path id="Path_1126" data-name="Path 1126" d="M2857.314,1813.529v103.836a7.475,7.475,0,0,1-7.475,7.476H2724.525a7.468,7.468,0,0,1-7.467-7.476V1813.529a7.467,7.467,0,0,1,7.467-7.475h125.314A7.474,7.474,0,0,1,2857.314,1813.529Z" fill="#304faa"/>
      </g>
      <g id="Group_1089" data-name="Group 1089">
        <g id="Group_1084" data-name="Group 1084">
          <rect id="Rectangle_489" data-name="Rectangle 489" width="113.58" height="56.842" transform="matrix(0.248, -0.969, 0.969, 0.248, 2721.469, 1837.38)" fill="#2a3e7c"/>
        </g>
        <g id="Group_1085" data-name="Group 1085">
          <path id="Path_1127" data-name="Path 1127" d="M2791.481,1741.008l-30.146-7.7a9.987,9.987,0,0,1-12.149,7.2l-21.746,85.117a9.989,9.989,0,0,1,7.205,12.149l30.145,7.7a9.987,9.987,0,0,1,12.149-7.2l21.746-85.118A9.987,9.987,0,0,1,2791.481,1741.008Z" fill="#203571"/>
        </g>
        <g id="Group_1086" data-name="Group 1086">
          <path id="Path_1128" data-name="Path 1128" d="M2766.274,1776.822a12.974,12.974,0,1,1-15.782,9.359A12.974,12.974,0,0,1,2766.274,1776.822Z" fill="#2a3e7c"/>
        </g>
        <g id="Group_1088" data-name="Group 1088">
          <g id="Group_1087" data-name="Group 1087">
            <path id="Path_1129" data-name="Path 1129" d="M2769.885,1791.645a.381.381,0,0,1-.465.276l-1.08-.276a5.035,5.035,0,0,1-1.041,1.789,3.359,3.359,0,0,1-1.368.916,2.67,2.67,0,0,1-1.415.1.31.31,0,0,1-.206-.159.353.353,0,0,1-.031-.263l.351-1.373a.476.476,0,0,1,.16-.272.633.633,0,0,1,.251-.116,1.892,1.892,0,0,0,.672-.215,1.937,1.937,0,0,0,.654-.6,3.249,3.249,0,0,0,.481-1.11,3.043,3.043,0,0,0,.051-1.746,1.193,1.193,0,0,0-.865-.8.976.976,0,0,0-.791.1,2.721,2.721,0,0,0-.724.777,17.017,17.017,0,0,0-.885,1.5,9.472,9.472,0,0,1-1.164,1.757,3.025,3.025,0,0,1-1.3.927,2.823,2.823,0,0,1-1.628,0,2.79,2.79,0,0,1-1.8-1.381,4.166,4.166,0,0,1-.408-2.652l-1.064-.272a.369.369,0,0,1-.235-.175.363.363,0,0,1-.041-.29l.24-.942a.371.371,0,0,1,.175-.234.364.364,0,0,1,.29-.041l1.1.28a4.474,4.474,0,0,1,1.067-1.6,3.6,3.6,0,0,1,1.333-.81,2.364,2.364,0,0,1,1.248-.092.343.343,0,0,1,.2.142.305.305,0,0,1,.04.265l-.367,1.435a.6.6,0,0,1-.129.246.468.468,0,0,1-.283.142,1.261,1.261,0,0,0-.967.377,2.43,2.43,0,0,0-.679,1.241,2.6,2.6,0,0,0-.032,1.414,1.074,1.074,0,0,0,.828.745,1.09,1.09,0,0,0,.781-.063,2.08,2.08,0,0,0,.709-.682,15.566,15.566,0,0,0,.847-1.386,10.931,10.931,0,0,1,1.225-1.964,2.962,2.962,0,0,1,1.291-.969,2.763,2.763,0,0,1,1.606-.009,2.876,2.876,0,0,1,1.454.84,3.266,3.266,0,0,1,.763,1.518,5.659,5.659,0,0,1,.051,2.019l1.065.272a.38.38,0,0,1,.276.465Z" fill="#2a3e7c"/>
          </g>
        </g>
      </g>
      <g id="Group_1095" data-name="Group 1095">
        <g id="Group_1090" data-name="Group 1090">
          <rect id="Rectangle_490" data-name="Rectangle 490" width="113.58" height="56.842" transform="translate(2724.012 1821.45) rotate(-56.734)" fill="#203571"/>
        </g>
        <g id="Group_1091" data-name="Group 1091">
          <path id="Path_1130" data-name="Path 1130" d="M2821.507,1753.011l-26.015-17.067a9.988,9.988,0,0,1-13.83,2.872l-48.189,73.455a9.989,9.989,0,0,1,2.873,13.83l26.015,17.067a9.988,9.988,0,0,1,13.829-2.873l48.19-73.455A9.986,9.986,0,0,1,2821.507,1753.011Z" fill="#304faa"/>
        </g>
        <g id="Group_1092" data-name="Group 1092">
          <path id="Path_1131" data-name="Path 1131" d="M2786.043,1778.708a12.974,12.974,0,1,1-17.965,3.731A12.974,12.974,0,0,1,2786.043,1778.708Z" fill="#6687e8"/>
        </g>
        <g id="Group_1094" data-name="Group 1094">
          <g id="Group_1093" data-name="Group 1093">
            <path id="Path_1132" data-name="Path 1132" d="M2784.649,1793.9a.373.373,0,0,1-.242.166.369.369,0,0,1-.288-.056l-.932-.611a5.025,5.025,0,0,1-1.565,1.354,3.366,3.366,0,0,1-1.592.423,2.7,2.7,0,0,1-1.37-.365.314.314,0,0,1-.143-.218.355.355,0,0,1,.056-.259l.778-1.185a.468.468,0,0,1,.239-.205.627.627,0,0,1,.276-.029,1.87,1.87,0,0,0,.7.015,1.929,1.929,0,0,0,.813-.353,3.225,3.225,0,0,0,.815-.894,3.047,3.047,0,0,0,.615-1.635,1.192,1.192,0,0,0-.56-1.034.97.97,0,0,0-.78-.16,2.73,2.73,0,0,0-.938.5,17.108,17.108,0,0,0-1.323,1.132,9.576,9.576,0,0,1-1.672,1.285,3.034,3.034,0,0,1-1.527.455,2.828,2.828,0,0,1-1.542-.526,2.789,2.789,0,0,1-1.255-1.89,4.168,4.168,0,0,1,.475-2.641l-.919-.6a.38.38,0,0,1-.11-.529l.533-.813a.373.373,0,0,1,.242-.165.369.369,0,0,1,.288.056l.945.62a4.486,4.486,0,0,1,1.529-1.169,3.6,3.6,0,0,1,1.524-.334,2.376,2.376,0,0,1,1.21.318.352.352,0,0,1,.146.2.311.311,0,0,1-.049.264l-.813,1.238a.586.586,0,0,1-.2.191.469.469,0,0,1-.313.043,1.26,1.26,0,0,0-1.038.043,2.416,2.416,0,0,0-1.044.953,2.607,2.607,0,0,0-.49,1.327,1.2,1.2,0,0,0,1.3,1.167,2.065,2.065,0,0,0,.892-.415,15.374,15.374,0,0,0,1.251-1.036,11.026,11.026,0,0,1,1.8-1.461,2.962,2.962,0,0,1,1.536-.5,2.758,2.758,0,0,1,1.521.512,2.874,2.874,0,0,1,1.1,1.267,3.252,3.252,0,0,1,.229,1.684,5.676,5.676,0,0,1-.606,1.926l.919.6a.38.38,0,0,1,.11.529Z" fill="#e89300"/>
          </g>
        </g>
      </g>
      <g id="Group_1101" data-name="Group 1101">
        <g id="Group_1096" data-name="Group 1096">
          <rect id="Rectangle_491" data-name="Rectangle 491" width="113.58" height="56.842" transform="translate(2736.096 1814.352) rotate(-41.326)" fill="#203571"/>
        </g>
        <g id="Group_1097" data-name="Group 1097">
          <path id="Path_1133" data-name="Path 1133" d="M2848.27,1774.275l-20.545-23.365a9.988,9.988,0,0,1-14.1-.906l-65.973,58.013a9.989,9.989,0,0,1-.905,14.1l20.546,23.365a9.987,9.987,0,0,1,14.1.905l65.973-58.013A9.986,9.986,0,0,1,2848.27,1774.275Z" fill="#304faa"/>
        </g>
        <g id="Group_1098" data-name="Group 1098">
          <path id="Path_1134" data-name="Path 1134" d="M2807.254,1789.626a12.974,12.974,0,1,1-18.311-1.176A12.974,12.974,0,0,1,2807.254,1789.626Z" fill="#6687e8"/>
        </g>
        <g id="Group_1100" data-name="Group 1100">
          <g id="Group_1099" data-name="Group 1099">
            <path id="Path_1135" data-name="Path 1135" d="M2801.873,1803.9a.379.379,0,0,1-.539-.034l-.737-.838a5.02,5.02,0,0,1-1.868.891,3.366,3.366,0,0,1-1.647-.016,2.688,2.688,0,0,1-1.224-.716.311.311,0,0,1-.08-.248.357.357,0,0,1,.122-.235l1.065-.936a.478.478,0,0,1,.285-.134.628.628,0,0,1,.274.046,1.858,1.858,0,0,0,.675.2,1.926,1.926,0,0,0,.877-.124,3.251,3.251,0,0,0,1.024-.645,3.044,3.044,0,0,0,1.027-1.413,1.191,1.191,0,0,0-.265-1.145.969.969,0,0,0-.71-.362,2.729,2.729,0,0,0-1.037.232,17.1,17.1,0,0,0-1.576.74,9.607,9.607,0,0,1-1.953.8,3.033,3.033,0,0,1-1.594.033,2.836,2.836,0,0,1-1.346-.916,2.792,2.792,0,0,1-.708-2.157,4.164,4.164,0,0,1,1.16-2.419l-.726-.825a.381.381,0,0,1,.035-.54l.729-.642a.373.373,0,0,1,.277-.095.369.369,0,0,1,.263.13l.747.849a4.47,4.47,0,0,1,1.784-.72,3.579,3.579,0,0,1,1.558.083,2.365,2.365,0,0,1,1.082.628.347.347,0,0,1,.087.231.3.3,0,0,1-.117.241l-1.112.978a.6.6,0,0,1-.246.131.467.467,0,0,1-.313-.042,1.257,1.257,0,0,0-1.012-.235,2.43,2.43,0,0,0-1.26.641,2.605,2.605,0,0,0-.824,1.15,1.077,1.077,0,0,0,.263,1.083,1.093,1.093,0,0,0,.681.388,2.067,2.067,0,0,0,.969-.163,15.486,15.486,0,0,0,1.482-.667,10.936,10.936,0,0,1,2.12-.931,2.965,2.965,0,0,1,1.612-.071,2.76,2.76,0,0,1,1.331.9,2.885,2.885,0,0,1,.727,1.514,3.269,3.269,0,0,1-.227,1.684,5.68,5.68,0,0,1-1.1,1.7l.725.825a.373.373,0,0,1,.1.277.377.377,0,0,1-.13.263Z" fill="#fff"/>
          </g>
        </g>
      </g>
      <g id="Group_1108" data-name="Group 1108">
        <g id="Group_1102" data-name="Group 1102">
          <path id="Path_1136" data-name="Path 1136" d="M2857.314,1823.721v93.642a7.475,7.475,0,0,1-7.475,7.476H2724.525a7.468,7.468,0,0,1-7.467-7.476V1813.529a7.467,7.467,0,0,1,7.467-7.475h1.55a5.1,5.1,0,1,0,0,10.191h123.764A7.475,7.475,0,0,1,2857.314,1823.721Z" fill="#4069e2"/>
        </g>
        <g id="Group_1103" data-name="Group 1103">
          <path id="Path_1137" data-name="Path 1137" d="M2860.946,1863.476v-4.022a4.592,4.592,0,0,0-3.632-4.493v4.671a3.844,3.844,0,0,1-3.845,3.844h-25.648a9.666,9.666,0,0,0-9.772,9.283,9.46,9.46,0,0,0,9.458,9.637h28.846a4.6,4.6,0,0,0,4.6-4.6v-14.323Z" fill="#304faa"/>
        </g>
        <g id="Group_1104" data-name="Group 1104">
          <path id="Path_1138" data-name="Path 1138" d="M2832.037,1872.936a4.13,4.13,0,1,1-4.13-4.13A4.13,4.13,0,0,1,2832.037,1872.936Z" fill="#84a8ec"/>
        </g>
        <g id="Group_1107" data-name="Group 1107">
          <g id="Group_1106" data-name="Group 1106">
            <g id="Group_1105" data-name="Group 1105">
              <path id="Path_1139" data-name="Path 1139" d="M2851.795,1917.074a.393.393,0,0,0-.516.2,2.54,2.54,0,0,1-2.317,1.511h-.572a.392.392,0,0,0-.391.391.4.4,0,0,0,.391.392h.572a3.34,3.34,0,0,0,3.037-1.973A.4.4,0,0,0,2851.795,1917.074Zm-7.35,1.706h-3.937a.387.387,0,0,0-.391.391.392.392,0,0,0,.391.392h3.937a.393.393,0,0,0,.392-.392A.388.388,0,0,0,2844.445,1918.78Zm-7.882,0h-3.945a.387.387,0,0,0-.392.391.392.392,0,0,0,.392.392h3.945a.4.4,0,0,0,.391-.392A.392.392,0,0,0,2836.563,1918.78Zm-7.891,0h-3.945a.387.387,0,0,0-.391.391.392.392,0,0,0,.391.392h3.945a.392.392,0,0,0,.392-.392A.387.387,0,0,0,2828.672,1918.78Zm-7.89,0h-3.945a.392.392,0,0,0-.391.391.4.4,0,0,0,.391.392h3.945a.393.393,0,0,0,.392-.392A.388.388,0,0,0,2820.782,1918.78Zm-7.89,0h-3.937a.387.387,0,0,0-.392.391.393.393,0,0,0,.392.392h3.937a.392.392,0,0,0,.391-.392A.387.387,0,0,0,2812.892,1918.78Zm-7.883,0h-3.945a.387.387,0,0,0-.391.391.392.392,0,0,0,.391.392h3.945a.4.4,0,0,0,.392-.392A.392.392,0,0,0,2805.009,1918.78Zm-7.89,0h-3.945a.392.392,0,0,0-.391.391.4.4,0,0,0,.391.392h3.945a.393.393,0,0,0,.392-.392A.388.388,0,0,0,2797.119,1918.78Zm-7.89,0h-3.945a.392.392,0,0,0-.392.391.4.4,0,0,0,.392.392h3.945a.392.392,0,0,0,.391-.392A.387.387,0,0,0,2789.229,1918.78Zm-7.883,0H2777.4a.387.387,0,0,0-.391.391.392.392,0,0,0,.391.392h3.945a.4.4,0,0,0,.392-.392A.392.392,0,0,0,2781.346,1918.78Zm-7.89,0h-3.945a.387.387,0,0,0-.391.391.392.392,0,0,0,.391.392h3.945a.4.4,0,0,0,.392-.392A.392.392,0,0,0,2773.456,1918.78Zm-7.89,0h-3.945a.392.392,0,0,0-.392.391.4.4,0,0,0,.392.392h3.945a.392.392,0,0,0,.391-.392A.387.387,0,0,0,2765.566,1918.78Zm-7.891,0h-3.945a.392.392,0,0,0-.391.391.4.4,0,0,0,.391.392h3.945a.392.392,0,0,0,.392-.392A.387.387,0,0,0,2757.675,1918.78Zm-7.882,0h-3.945a.387.387,0,0,0-.391.391.392.392,0,0,0,.391.392h3.945a.4.4,0,0,0,.392-.392A.393.393,0,0,0,2749.793,1918.78Zm-7.89,0h-3.945a.388.388,0,0,0-.392.391.393.393,0,0,0,.392.392h3.945a.4.4,0,0,0,.391-.392A.392.392,0,0,0,2741.9,1918.78Zm-7.891,0h-3.945a.392.392,0,0,0-.391.391.4.4,0,0,0,.391.392h3.945a.393.393,0,0,0,.392-.392A.387.387,0,0,0,2734.012,1918.78Zm-7.874-.015a12.137,12.137,0,0,1-3.726-.744.389.389,0,1,0-.274.728,12.771,12.771,0,0,0,3.968.8h.016a.389.389,0,0,0,.392-.376A.4.4,0,0,0,2726.138,1918.765Zm-7.037-2.623a12.1,12.1,0,0,1-2.043-2.059v1.214a13.832,13.832,0,0,0,1.558,1.464.4.4,0,0,0,.242.086.409.409,0,0,0,.305-.149A.4.4,0,0,0,2719.1,1916.142Zm132.788-6.959a.392.392,0,0,0-.391.392v3.945a.391.391,0,0,0,.783,0v-3.945A.393.393,0,0,0,2851.889,1909.183Zm0-7.882a.387.387,0,0,0-.391.391v3.938a.391.391,0,0,0,.783,0v-3.938A.387.387,0,0,0,2851.889,1901.3Zm0-7.89a.387.387,0,0,0-.391.391v3.945a.391.391,0,0,0,.783,0V1893.8A.387.387,0,0,0,2851.889,1893.411Zm0-7.891a.388.388,0,0,0-.391.392v3.945a.391.391,0,0,0,.783,0v-3.945A.388.388,0,0,0,2851.889,1885.52Zm0-7.89a.392.392,0,0,0-.391.391v3.946a.391.391,0,0,0,.783,0v-3.946A.393.393,0,0,0,2851.889,1877.63Zm0-7.882a.387.387,0,0,0-.391.391v3.937a.391.391,0,1,0,.783,0v-3.937A.387.387,0,0,0,2851.889,1869.748Zm0-7.891a.388.388,0,0,0-.391.392v3.945a.391.391,0,0,0,.783,0v-3.945A.388.388,0,0,0,2851.889,1861.857Zm0-7.89a.387.387,0,0,0-.391.391v3.945a.391.391,0,1,0,.783,0v-3.945A.387.387,0,0,0,2851.889,1853.967Zm0-7.89a.392.392,0,0,0-.391.391v3.945a.391.391,0,1,0,.783,0v-3.945A.392.392,0,0,0,2851.889,1846.077Zm0-7.883a.388.388,0,0,0-.391.392v3.937a.391.391,0,0,0,.783,0v-3.937A.388.388,0,0,0,2851.889,1838.194Zm0-7.89a.387.387,0,0,0-.391.391v3.945a.391.391,0,1,0,.783,0v-3.945A.387.387,0,0,0,2851.889,1830.3Zm-.375-7.593a.386.386,0,0,0-.548-.047.4.4,0,0,0-.055.548,2.56,2.56,0,0,1,.587,1.628v1.91a.391.391,0,1,0,.783,0v-1.91A3.35,3.35,0,0,0,2851.514,1822.711Zm-3.922-1.2h-3.945a.392.392,0,0,0-.391.391.387.387,0,0,0,.391.391h3.945a.392.392,0,0,0,.391-.391A.4.4,0,0,0,2847.592,1821.514Zm-7.89,0h-3.945a.392.392,0,0,0-.392.391.387.387,0,0,0,.392.391h3.945a.392.392,0,0,0,.391-.391A.4.4,0,0,0,2839.7,1821.514Zm-7.891,0h-3.945a.4.4,0,0,0-.391.391.392.392,0,0,0,.391.391h3.945a.387.387,0,0,0,.392-.391A.392.392,0,0,0,2831.811,1821.514Zm-7.89,0h-3.945a.4.4,0,0,0-.391.391.392.392,0,0,0,.391.391h3.945a.387.387,0,0,0,.391-.391A.392.392,0,0,0,2823.921,1821.514Zm-7.882,0h-3.945a.392.392,0,0,0-.392.391.387.387,0,0,0,.392.391h3.945a.392.392,0,0,0,.391-.391A.4.4,0,0,0,2816.039,1821.514Zm-7.891,0H2804.2a.392.392,0,0,0-.391.391.387.387,0,0,0,.391.391h3.945a.392.392,0,0,0,.392-.391A.4.4,0,0,0,2808.148,1821.514Zm-7.89,0h-3.945a.4.4,0,0,0-.391.391.392.392,0,0,0,.391.391h3.945a.387.387,0,0,0,.391-.391A.392.392,0,0,0,2800.258,1821.514Zm-7.89,0h-3.945a.4.4,0,0,0-.392.391.392.392,0,0,0,.392.391h3.945a.387.387,0,0,0,.391-.391A.392.392,0,0,0,2792.368,1821.514Zm-7.883,0h-3.945a.392.392,0,0,0-.391.391.387.387,0,0,0,.391.391h3.945a.392.392,0,0,0,.392-.391A.4.4,0,0,0,2784.485,1821.514Zm-7.89,0h-3.945a.393.393,0,0,0-.392.391.388.388,0,0,0,.392.391h3.945a.392.392,0,0,0,.391-.391A.4.4,0,0,0,2776.595,1821.514Zm-7.89,0h-3.945a.4.4,0,0,0-.392.391.393.393,0,0,0,.392.391h3.945a.387.387,0,0,0,.391-.391A.392.392,0,0,0,2768.705,1821.514Zm-7.891,0h-3.937a.392.392,0,0,0-.391.391.387.387,0,0,0,.391.391h3.937a.387.387,0,0,0,.392-.391A.392.392,0,0,0,2760.814,1821.514Zm-7.882,0h-3.945a.393.393,0,0,0-.392.391.388.388,0,0,0,.392.391h3.945a.392.392,0,0,0,.391-.391A.4.4,0,0,0,2752.932,1821.514Zm-7.89,0H2741.1a.392.392,0,0,0-.392.391.387.387,0,0,0,.392.391h3.945a.387.387,0,0,0,.391-.391A.392.392,0,0,0,2745.042,1821.514Zm-7.891,0h-3.945a.4.4,0,0,0-.391.391.392.392,0,0,0,.391.391h3.945a.387.387,0,0,0,.392-.391A.392.392,0,0,0,2737.151,1821.514Zm-7.89,0h-2.614c-.431,0-.861-.024-1.284-.063a.389.389,0,1,0-.078.775,13.107,13.107,0,0,0,1.362.07h2.614a.387.387,0,0,0,.391-.391A.392.392,0,0,0,2729.261,1821.514Zm-7.569-1.057a12.047,12.047,0,0,1-3.186-2.075.391.391,0,1,0-.525.58,12.953,12.953,0,0,0,3.39,2.215.4.4,0,0,0,.156.031.384.384,0,0,0,.361-.235A.4.4,0,0,0,2721.692,1820.457Z" fill="#3852a5"/>
            </g>
          </g>
        </g>
      </g>
    </g>
    <g id="Group_1137" data-name="Group 1137">
      <g id="Group_1110" data-name="Group 1110">
        <rect id="Rectangle_492" data-name="Rectangle 492" width="73.521" height="95.619" rx="3.342" transform="translate(2666.409 1845.601)" fill="#6687e8"/>
      </g>
      <g id="Group_1111" data-name="Group 1111">
        <rect id="Rectangle_493" data-name="Rectangle 493" width="57.814" height="12.365" transform="translate(2674.263 1854.958)" fill="#fef2f2"/>
      </g>
      <g id="Group_1136" data-name="Group 1136">
        <g id="Group_1112" data-name="Group 1112">
          <rect id="Rectangle_494" data-name="Rectangle 494" width="9.858" height="5.347" rx="1.131" transform="translate(2674.263 1876.848)" fill="#304faa"/>
        </g>
        <g id="Group_1113" data-name="Group 1113">
          <rect id="Rectangle_495" data-name="Rectangle 495" width="9.859" height="5.347" rx="1.131" transform="translate(2686.252 1876.848)" fill="#304faa"/>
        </g>
        <g id="Group_1114" data-name="Group 1114">
          <rect id="Rectangle_496" data-name="Rectangle 496" width="9.858" height="5.347" rx="1.131" transform="translate(2698.241 1876.848)" fill="#304faa"/>
        </g>
        <g id="Group_1115" data-name="Group 1115">
          <rect id="Rectangle_497" data-name="Rectangle 497" width="9.858" height="5.347" rx="1.131" transform="translate(2710.229 1876.848)" fill="#304faa"/>
        </g>
        <g id="Group_1116" data-name="Group 1116">
          <rect id="Rectangle_498" data-name="Rectangle 498" width="9.858" height="9.727" rx="1.41" transform="translate(2674.263 1886.67)" fill="#304faa"/>
        </g>
        <g id="Group_1117" data-name="Group 1117">
          <rect id="Rectangle_499" data-name="Rectangle 499" width="9.859" height="9.727" rx="1.41" transform="translate(2686.252 1886.67)" fill="#304faa"/>
        </g>
        <g id="Group_1118" data-name="Group 1118">
          <rect id="Rectangle_500" data-name="Rectangle 500" width="9.858" height="9.727" rx="1.41" transform="translate(2698.241 1886.67)" fill="#304faa"/>
        </g>
        <g id="Group_1119" data-name="Group 1119">
          <rect id="Rectangle_501" data-name="Rectangle 501" width="9.858" height="9.727" rx="1.41" transform="translate(2710.229 1886.67)" fill="#304faa"/>
        </g>
        <g id="Group_1120" data-name="Group 1120">
          <rect id="Rectangle_502" data-name="Rectangle 502" width="9.858" height="9.727" rx="1.41" transform="translate(2674.263 1898.868)" fill="#304faa"/>
        </g>
        <g id="Group_1121" data-name="Group 1121">
          <rect id="Rectangle_503" data-name="Rectangle 503" width="9.859" height="9.727" rx="1.41" transform="translate(2686.252 1898.868)" fill="#304faa"/>
        </g>
        <g id="Group_1122" data-name="Group 1122">
          <rect id="Rectangle_504" data-name="Rectangle 504" width="9.858" height="9.727" rx="1.41" transform="translate(2698.241 1898.868)" fill="#304faa"/>
        </g>
        <g id="Group_1123" data-name="Group 1123">
          <rect id="Rectangle_505" data-name="Rectangle 505" width="9.858" height="9.727" rx="1.41" transform="translate(2710.229 1898.868)" fill="#fff"/>
        </g>
        <g id="Group_1124" data-name="Group 1124">
          <rect id="Rectangle_506" data-name="Rectangle 506" width="9.858" height="9.727" rx="1.41" transform="translate(2674.263 1911.066)" fill="#304faa"/>
        </g>
        <g id="Group_1125" data-name="Group 1125">
          <rect id="Rectangle_507" data-name="Rectangle 507" width="9.859" height="9.727" rx="1.41" transform="translate(2686.252 1911.066)" fill="#304faa"/>
        </g>
        <g id="Group_1126" data-name="Group 1126">
          <rect id="Rectangle_508" data-name="Rectangle 508" width="9.858" height="9.727" rx="1.41" transform="translate(2698.241 1911.066)" fill="#304faa"/>
        </g>
        <g id="Group_1127" data-name="Group 1127">
          <rect id="Rectangle_509" data-name="Rectangle 509" width="9.858" height="9.727" rx="1.41" transform="translate(2710.229 1911.066)" fill="#fff"/>
        </g>
        <g id="Group_1128" data-name="Group 1128">
          <rect id="Rectangle_510" data-name="Rectangle 510" width="9.858" height="9.727" rx="1.41" transform="translate(2674.263 1923.264)" fill="#304faa"/>
        </g>
        <g id="Group_1129" data-name="Group 1129">
          <rect id="Rectangle_511" data-name="Rectangle 511" width="9.859" height="9.727" rx="1.41" transform="translate(2686.252 1923.264)" fill="#304faa"/>
        </g>
        <g id="Group_1130" data-name="Group 1130">
          <rect id="Rectangle_512" data-name="Rectangle 512" width="9.858" height="9.727" rx="1.41" transform="translate(2698.241 1923.264)" fill="#304faa"/>
        </g>
        <g id="Group_1131" data-name="Group 1131">
          <rect id="Rectangle_513" data-name="Rectangle 513" width="9.858" height="9.727" rx="1.41" transform="translate(2710.229 1923.264)" fill="#fff"/>
        </g>
        <g id="Group_1132" data-name="Group 1132">
          <rect id="Rectangle_514" data-name="Rectangle 514" width="9.858" height="5.347" rx="1.131" transform="translate(2722.219 1876.848)" fill="#304faa"/>
        </g>
        <g id="Group_1133" data-name="Group 1133">
          <rect id="Rectangle_515" data-name="Rectangle 515" width="9.858" height="9.727" rx="1.41" transform="translate(2722.219 1886.67)" fill="#304faa"/>
        </g>
        <g id="Group_1134" data-name="Group 1134">
          <rect id="Rectangle_516" data-name="Rectangle 516" width="9.858" height="9.727" rx="1.41" transform="translate(2722.219 1898.868)" fill="#fff"/>
        </g>
        <g id="Group_1135" data-name="Group 1135">
          <path id="Path_1140" data-name="Path 1140" d="M2730.667,1911.066h-7.038a1.41,1.41,0,0,0-1.411,1.41v19.105a1.411,1.411,0,0,0,1.411,1.41h7.038a1.41,1.41,0,0,0,1.41-1.41v-19.105A1.41,1.41,0,0,0,2730.667,1911.066Z" fill="#fff"/>
        </g>
      </g>
    </g>
    <g id="Group_1155" data-name="Group 1155">
      <g id="Group_1142" data-name="Group 1142">
        <g id="Group_1138" data-name="Group 1138">
          <circle id="Ellipse_9" data-name="Ellipse 9" cx="15.011" cy="15.011" r="15.011" transform="matrix(0.3, -0.954, 0.954, 0.3, 2726.23, 1936.372)" fill="#3852a5"/>
        </g>
        <g id="Group_1139" data-name="Group 1139">
          <circle id="Ellipse_10" data-name="Ellipse 10" cx="12.443" cy="12.443" r="12.443" transform="translate(2729.023 1919.298) rotate(-20.634)" fill="#4069e2"/>
        </g>
        <g id="Group_1141" data-name="Group 1141">
          <g id="Group_1140" data-name="Group 1140">
            <path id="Path_1141" data-name="Path 1141" d="M2744.421,1935.736a.488.488,0,0,1-.49-.489v-1.428a6.429,6.429,0,0,1-2.549-.724,4.312,4.312,0,0,1-1.571-1.408,3.444,3.444,0,0,1-.571-1.723.4.4,0,0,1,.133-.306.447.447,0,0,1,.316-.122h1.815a.614.614,0,0,1,.388.112.8.8,0,0,1,.224.275,2.407,2.407,0,0,0,.479.765,2.48,2.48,0,0,0,.949.622,4.15,4.15,0,0,0,1.53.245,3.891,3.891,0,0,0,2.182-.49,1.528,1.528,0,0,0,.714-1.325,1.246,1.246,0,0,0-.377-.949,3.5,3.5,0,0,0-1.194-.652,21.953,21.953,0,0,0-2.141-.623,12.122,12.122,0,0,1-2.55-.887,3.882,3.882,0,0,1-1.56-1.315,3.624,3.624,0,0,1-.52-2.02,3.575,3.575,0,0,1,1.142-2.672,5.332,5.332,0,0,1,3.161-1.346v-1.407a.487.487,0,0,1,.49-.489h1.244a.485.485,0,0,1,.489.489v1.448a5.741,5.741,0,0,1,2.326.816,4.619,4.619,0,0,1,1.428,1.4,3.037,3.037,0,0,1,.509,1.52.442.442,0,0,1-.112.295.39.39,0,0,1-.316.133h-1.9a.764.764,0,0,1-.346-.081.6.6,0,0,1-.266-.307,1.615,1.615,0,0,0-.775-1.081,3.106,3.106,0,0,0-1.754-.448,3.338,3.338,0,0,0-1.764.408,1.379,1.379,0,0,0-.663,1.264,1.4,1.4,0,0,0,.326.949,2.667,2.667,0,0,0,1.071.662,19.434,19.434,0,0,0,1.989.612,14.086,14.086,0,0,1,2.825.9,3.8,3.8,0,0,1,1.611,1.3,3.528,3.528,0,0,1,.52,1.989,3.7,3.7,0,0,1-.581,2.07,4.189,4.189,0,0,1-1.642,1.428,7.279,7.279,0,0,1-2.489.7v1.408a.487.487,0,0,1-.489.489Z" fill="#a3b7f1"/>
          </g>
        </g>
      </g>
      <g id="Group_1146" data-name="Group 1146">
        <g id="Group_1143" data-name="Group 1143">
          <circle id="Ellipse_11" data-name="Ellipse 11" cx="15.011" cy="15.011" r="15.011" transform="translate(2797.953 1926.558) rotate(-45)" fill="#3852a5"/>
        </g>
        <g id="Group_1144" data-name="Group 1144">
          <circle id="Ellipse_12" data-name="Ellipse 12" cx="12.443" cy="12.443" r="12.443" transform="translate(2806.738 1914.115)" fill="#4069e2"/>
        </g>
        <g id="Group_1145" data-name="Group 1145">
          <path id="Path_1142" data-name="Path 1142" d="M2819.432,1933.824a5.653,5.653,0,0,1-3.976-1.352,5.55,5.55,0,0,1-1.676-3.8h-1.332a.393.393,0,0,1-.444-.444v-.525a.393.393,0,0,1,.444-.444h1.272v-1.413h-1.272a.392.392,0,0,1-.444-.444v-.524a.393.393,0,0,1,.444-.444h1.332a5.55,5.55,0,0,1,1.676-3.795,5.653,5.653,0,0,1,3.976-1.352,6.558,6.558,0,0,1,2.523.444,5.874,5.874,0,0,1,1.766,1.09,4.483,4.483,0,0,1,1.039,1.382,3.219,3.219,0,0,1,.343,1.342.447.447,0,0,1-.444.445h-.928a.565.565,0,0,1-.323-.111.656.656,0,0,1-.242-.334,4.351,4.351,0,0,0-.454-.887,3.133,3.133,0,0,0-.757-.788,4.006,4.006,0,0,0-1.09-.555,4.468,4.468,0,0,0-1.433-.212,3.432,3.432,0,0,0-3.734,3.331h4.137a.393.393,0,0,1,.445.444v.524a.393.393,0,0,1-.445.444h-4.2v1.413h4.2a.394.394,0,0,1,.445.444v.525a.393.393,0,0,1-.445.444H2815.7a3.6,3.6,0,0,0,1.08,2.422,3.7,3.7,0,0,0,2.654.908,5.572,5.572,0,0,0,1.564-.192,3.527,3.527,0,0,0,1.11-.524,2.61,2.61,0,0,0,.717-.777,3.455,3.455,0,0,0,.383-.949.489.489,0,0,1,.2-.333.564.564,0,0,1,.323-.111h.928a.447.447,0,0,1,.444.444,3.586,3.586,0,0,1-.322,1.413,4.194,4.194,0,0,1-1,1.383,5.292,5.292,0,0,1-1.756,1.049A7.251,7.251,0,0,1,2819.432,1933.824Z" fill="#a3b7f1"/>
        </g>
      </g>
      <g id="Group_1150" data-name="Group 1150">
        <g id="Group_1147" data-name="Group 1147">
          <circle id="Ellipse_13" data-name="Ellipse 13" cx="15.011" cy="15.011" r="15.011" transform="translate(2835.018 1926.558) rotate(-45)" fill="#3852a5"/>
        </g>
        <g id="Group_1148" data-name="Group 1148">
          <circle id="Ellipse_14" data-name="Ellipse 14" cx="12.443" cy="12.443" r="12.443" transform="translate(2838.648 1926.558) rotate(-45)" fill="#4069e2"/>
        </g>
        <g id="Group_1149" data-name="Group 1149">
          <path id="Path_1143" data-name="Path 1143" d="M2854.026,1924.853c0,.188.006.37.02.544s.033.357.06.546h4.037a.392.392,0,0,1,.444.443v.525a.392.392,0,0,1-.444.444h-3.794q.139.625.242,1.242a9.8,9.8,0,0,1,.121,1.261,3.862,3.862,0,0,1,1.191.545q.523.363,1,.727a10.686,10.686,0,0,0,.918.635,1.815,1.815,0,0,0,.969.273,1.143,1.143,0,0,0,1.029-.489,2.71,2.71,0,0,0,.4-1.2.491.491,0,0,1,.2-.335.561.561,0,0,1,.323-.113h.928a.449.449,0,0,1,.444.446,4.955,4.955,0,0,1-.212,1.3,3.281,3.281,0,0,1-.585,1.116,2.838,2.838,0,0,1-1.019.781,3.543,3.543,0,0,1-1.514.294,3.362,3.362,0,0,1-1.595-.363,9.252,9.252,0,0,1-1.261-.8q-.576-.433-1.09-.8a1.875,1.875,0,0,0-1.1-.363,1.158,1.158,0,0,0-1.03.474,2.587,2.587,0,0,0-.4,1.181.489.489,0,0,1-.2.333.567.567,0,0,1-.323.111h-.928a.447.447,0,0,1-.444-.444,5.363,5.363,0,0,1,.151-1.1,3.067,3.067,0,0,1,1.161-1.756,2.764,2.764,0,0,1,1.069-.474,8.325,8.325,0,0,0-.131-1.252q-.111-.6-.232-1.231h-1.615a.392.392,0,0,1-.444-.444v-.525a.392.392,0,0,1,.444-.443h1.353a9.044,9.044,0,0,1-.061-1.09,7.659,7.659,0,0,1,.313-2.241,4.968,4.968,0,0,1,.928-1.766,4.265,4.265,0,0,1,1.524-1.15,5.014,5.014,0,0,1,2.1-.414,5.187,5.187,0,0,1,2.311.464,4.526,4.526,0,0,1,1.514,1.161,4.463,4.463,0,0,1,.828,1.483,5.309,5.309,0,0,1,.272,1.453.449.449,0,0,1-.444.445h-.928a.567.567,0,0,1-.323-.112.488.488,0,0,1-.2-.333,6.286,6.286,0,0,0-.333-1,3.22,3.22,0,0,0-.555-.878,2.621,2.621,0,0,0-.868-.625,3.013,3.013,0,0,0-1.272-.243,2.968,2.968,0,0,0-1.322.273,2.478,2.478,0,0,0-.918.767,3.337,3.337,0,0,0-.535,1.181A6.349,6.349,0,0,0,2854.026,1924.853Z" fill="#a3b7f1"/>
        </g>
      </g>
      <g id="Group_1154" data-name="Group 1154">
        <g id="Group_1151" data-name="Group 1151">
          <circle id="Ellipse_15" data-name="Ellipse 15" cx="15.011" cy="15.011" r="15.011" transform="translate(2763.417 1936.604) rotate(-73.244)" fill="#3852a5"/>
        </g>
        <g id="Group_1152" data-name="Group 1152">
          <circle id="Ellipse_16" data-name="Ellipse 16" cx="12.443" cy="12.443" r="12.443" transform="translate(2767.163 1935.834) rotate(-76.813)" fill="#4069e2"/>
        </g>
        <g id="Group_1153" data-name="Group 1153">
          <path id="Path_1144" data-name="Path 1144" d="M2780.846,1927.406l-4.259-7.186a.653.653,0,0,1-.1-.282.447.447,0,0,1,.444-.444h.868a.759.759,0,0,1,.565.171,4.149,4.149,0,0,1,.283.333l3.471,5.894,3.472-5.894a4.229,4.229,0,0,1,.282-.333.759.759,0,0,1,.566-.171h.868a.447.447,0,0,1,.443.444.647.647,0,0,1-.1.282l-4.259,7.186h2.664a.392.392,0,0,1,.444.444v.524a.393.393,0,0,1-.444.445h-2.987v1.009h2.987a.392.392,0,0,1,.444.444v.524a.392.392,0,0,1-.444.444h-2.987v1.837a.553.553,0,0,1-.545.545h-.807a.552.552,0,0,1-.545-.545v-1.837h-2.987a.393.393,0,0,1-.445-.444v-.524a.393.393,0,0,1,.445-.444h2.987v-1.009h-2.987a.394.394,0,0,1-.445-.445v-.524a.393.393,0,0,1,.445-.444Z" fill="#a3b7f1"/>
        </g>
      </g>
    </g>
  </g>
</svg>
