<svg xmlns="http://www.w3.org/2000/svg" width="47.242" height="47.243" viewBox="0 0 47.242 47.243">
  <g id="Group_798" data-name="Group 798" transform="translate(-6504.475 -1990.499)">
    <path id="Path_823" data-name="Path 823" d="M6528.1,2037.742a23.621,23.621,0,1,1,23.621-23.622A23.648,23.648,0,0,1,6528.1,2037.742Zm0-45.493a21.871,21.871,0,1,0,21.871,21.871A21.9,21.9,0,0,0,6528.1,1992.249Z" fill="#fff"/>
    <path id="Path_824" data-name="Path 824" d="M6530.72,2029.868h-5.249a.875.875,0,0,1-.875-.875v-21.871h-9.623a.874.874,0,0,1-.875-.875V2001a.874.874,0,0,1,.875-.874h26.245a.874.874,0,0,1,.875.874v5.25a.874.874,0,0,1-.875.875H6531.6v21.871A.875.875,0,0,1,6530.72,2029.868Zm-4.374-1.75h3.5v-21.871a.874.874,0,0,1,.875-.875h9.624v-3.5h-24.5v3.5h9.623a.874.874,0,0,1,.875.875Z" fill="#fff"/>
    <path id="Path_825" data-name="Path 825" d="M6528.1,2018.495c-1.254,0-12.248-.1-12.248-3.5,0-2.474,5.811-3.2,9.275-3.411a.875.875,0,0,1,.106,1.747c-4.853.3-7.127,1.209-7.581,1.665.632.672,4.391,1.749,10.448,1.749s9.814-1.077,10.448-1.748c-.447-.446-2.659-1.342-7.373-1.652a.875.875,0,1,1,.117-1.747c3.381.224,9.056.962,9.056,3.4C6540.344,2018.4,6529.349,2018.495,6528.1,2018.495Z" fill="#fff"/>
  </g>
</svg>
