<svg xmlns="http://www.w3.org/2000/svg" width="39.718" height="52.243" viewBox="0 0 39.718 52.243">
  <g id="Group_796" data-name="Group 796" transform="translate(-6596.326 -1811.913)">
    <g id="Group_795" data-name="Group 795">
      <path id="Path_819" data-name="Path 819" d="M6616.866,1817.777h.858a1.021,1.021,0,0,0,0-2.041h-.858a1.021,1.021,0,0,0,0,2.041Z" fill="#fff"/>
      <path id="Path_820" data-name="Path 820" d="M6605.61,1817.777h6.945a1.021,1.021,0,0,0,0-2.041h-6.945a1.021,1.021,0,1,0,0,2.041Z" fill="#fff"/>
      <path id="Path_821" data-name="Path 821" d="M6613.43,1835.231l-.284-.1v-2.317a.921.921,0,0,1,.356.275,1.021,1.021,0,1,0,1.67-1.174,3.238,3.238,0,0,0-2.026-1.235v-.029a1.021,1.021,0,1,0-2.041,0v.1q-.13.031-.263.072a3.027,3.027,0,0,0-2.069,2.653,2.826,2.826,0,0,0,1.724,2.816c.139.065.347.153.608.256v2.863a1.853,1.853,0,0,1-.776-.527,1.02,1.02,0,1,0-1.588,1.281,4.152,4.152,0,0,0,2.365,1.373,1.02,1.02,0,0,0,2.035.075,3.156,3.156,0,0,0,2.817-2.658,3.566,3.566,0,0,0-2.528-3.723Zm-2.621-1.6a1.045,1.045,0,0,1,.3-.647v1.307a.734.734,0,0,1-.3-.66Zm3.125,5.071a1.022,1.022,0,0,1-.788.823v-2.183A1.439,1.439,0,0,1,6613.934,1838.7Z" fill="#fff"/>
      <path id="Path_822" data-name="Path 822" d="M6632.5,1821.185h-5.494v-2.678a6.6,6.6,0,0,0-6.594-6.594H6602.92a6.6,6.6,0,0,0-6.594,6.594v39.055a6.6,6.6,0,0,0,6.594,6.594h17.494a6.6,6.6,0,0,0,6.594-6.594v-6.586h5.494a3.546,3.546,0,0,0,3.542-3.542v-22.707a3.546,3.546,0,0,0-3.542-3.542Zm-12.088,40.93H6602.92a4.557,4.557,0,0,1-4.553-4.553v-.97h26.6v.97a4.557,4.557,0,0,1-4.553,4.553Zm-15.825-41.342v30.481a1.021,1.021,0,0,0,2.041,0v-.278h18.337v3.576h-26.6v-36.045a4.557,4.557,0,0,1,4.553-4.553h17.494a4.557,4.557,0,0,1,4.553,4.553v2.678H6606.63v-.412m-1.02-1.021,1.02,7.964h18.761a5.177,5.177,0,0,0,4.122,4.056v8.617a5.177,5.177,0,0,0-4.122,4.056H6606.63ZM6634,1847.434a1.5,1.5,0,0,1-1.5,1.5H6606.63v-2.449h19.68a1.021,1.021,0,0,0,1.021-1.02,3.125,3.125,0,0,1,3.121-3.122h.063a1.02,1.02,0,0,0,1.039-1.02v-10.487a1.021,1.021,0,0,0-1.039-1.021h-.063a3.125,3.125,0,0,1-3.121-3.122,1.021,1.021,0,0,0-1.021-1.02h-19.68v-2.449H6632.5a1.5,1.5,0,0,1,1.5,1.5v22.707Z" fill="#fff"/>
    </g>
  </g>
</svg>
